<ttFont>
<head>
    <!-- Most of this table will be recalculated by the compiler -->
    <tableVersion value="1.0"/>
    <fontRevision value="0.0"/>
    <checkSumAdjustment value="0xe2805a64"/>
    <magicNumber value="0x5f0f3cf5"/>
    <flags value="00000000 00000011"/>
    <unitsPerEm value="2048"/>
    <created value="Thu May  4 15:30:30 2017"/>
    <modified value="Thu May  4 22:30:35 2017"/>
    <xMin value="-203"/>
    <yMin value="-840"/>
    <xMax value="1469"/>
    <yMax value="2331"/>
<macStyle value="00000000 00000001"/>
    <lowestRecPPEM value="3"/>
    <fontDirectionHint value="2"/>
    <indexToLocFormat value="0"/>
    <glyphDataFormat value="0"/>
  </head>
          <CharString index="0">
            1188 611 rmoveto
            4 callgsubr
            -221 vlineto
            15 callsubr
            -555 -388 rmoveto
            -174 -92 131 260 hvcurveto
            215 vlineto
            260 92 131 174 174 92 -131 -260 vhcurveto
            -215 vlineto
            -260 -92 -131 -174 vhcurveto
            return
          </CharString>
          <CharString index="1">
            646 914 -86 callsubr
            226 -604 rmoveto
            -72 -20 -87 -50 -110 hhcurveto
            -143 -93 94 144 hvcurveto
            60 711 152 vlineto
            296 -187 192 -292 -300 -200 -191 -289 vhcurveto
            -177 vlineto
            -313 184 -180 321 256 195 -36 callsubr
            return
          </CharString>
          <CharString index="2">
            rmoveto
            -273 -638 hlineto
            -152 -91 -97 -140 -139 -65 77 162 vhcurveto
            648 -274 -714 vlineto
            -269 128 -144 240 159 119 76 133 54 143 callsubr
            hlineto
            return
          </CharString>
          <CharString index="3">
            307 -398 rmoveto
            270 129 100 284 95 hvcurveto
            380 1117 rlineto
            -290 hlineto
            -244 -851 rlineto
            -17 hlineto
            -244 851 rlineto
            -302 hlineto
            388 -1111 -11 -42 rlineto
            -87 -26 -61 -38 -111 hhcurveto
            -15 -39 1 2 -7 hvcurveto
            -224 vlineto
            -1 8 50 -1 47 hhcurveto
            return
          </CharString>
          <CharString index="4">
            -99 callgsubr
            -95 callgsubr
            return
          </CharString>
          <CharString index="5">
            633 227 rmoveto
            -162 -90 107 194 hvcurveto
            915 -285 -932 vlineto
            -340 199 -200 338 338 199 200 340 vhcurveto
            932 -285 -915 vlineto
            -194 -90 -107 -162 vhcurveto
            return
          </CharString>
          <CharString index="6">
            rmoveto
            -625 371 588 227 -588 355 625 245 -910 -1443 910 hlineto
            return
          </CharString>
          <CharString index="7">
            -80 -67 -69 -83 -83 67 -69 80 return
          </CharString>
          <CharString index="8">
            -88 callgsubr
            259 hlineto
            -267 356 rlineto
            return
          </CharString>
          <CharString index="9">
            87 71 73 89 90 -71 73 -87 -87 -71 -73 -90 -89 81 callgsubr
            return
          </CharString>
          <CharString index="10">
            hmoveto
            -103 callsubr
            return
          </CharString>
          <CharString index="11">
            rmoveto
            260 92 131 174 174 92 -131 -260 vhcurveto
            -215 vlineto
            -260 -92 -131 -174 -174 -92 131 260 vhcurveto
            821 218 rmoveto
            401 -209 239 -346 -346 -209 -239 -401 vhcurveto
            -221 vlineto
            15 callsubr
            endchar
          </CharString>
          <CharString index="12">
            rmoveto
            283 -494 -202 230 -700 -210 -201 792 201 -320 288 vlineto
            237 127 118 260 62 72 -13 -19 50 vhcurveto
            297 vlineto
            15 -39 -56 8 -62 hhcurveto
            -208 -113 -93 -219 -48 hvcurveto
            endchar
          </CharString>
          <CharString index="13">
            688 hmoveto
            309 191 158 253 187 -137 145 -192 14 hvcurveto
            17 vlineto
            150 23 110 131 156 vvcurveto
            225 -167 134 -277 vhcurveto
            -531 -1443 hlineto
            278 1224 rmoveto
            176 hlineto
            152 83 -67 -124 -116 -90 -68 -157 hvcurveto
            -164 hlineto
            -626 vmoveto
            418 176 vlineto
            195 99 -68 -137 -146 -94 -67 -198 hvcurveto
            return
          </CharString>
          <CharString index="14">
            rmoveto
            151 -850 216 callgsubr
            224 -49 callgsubr
            214 callsubr
            -58 -498 -57 -570 rlineto
            -16 hlineto
            -134 738 rlineto
            -220 hlineto
            -134 -738 rlineto
            -16 hlineto
            -57 570 -58 498 214 callsubr
            224 -1443 216 callgsubr
            151 850 rlineto
            return
          </CharString>
          <CharString index="15">
            228 92 120 175 147 98 -112 -173 3 vhcurveto
            288 hlineto
            341 -2 -197 199 -332 hhcurveto
            -357 -210 -223 -380 hvcurveto
            -295 vlineto
            return
          </CharString>
          <CharString index="16">
            147 91 -107 -170 -25 callgsubr
            170 91 107 147 vhcurveto
            507 -436 rmoveto
            156 vlineto
            127 -40 100 -71 50 vhcurveto
            14 49 vlineto
            119 64 66 123 hvcurveto
            218 -216 -144 vlineto
            -63 -30 -24 -77 vhcurveto
            -120 -55 37 -130 hhcurveto
            -311 -196 -189 -301 hvcurveto
            -16 callsubr
            endchar
          </CharString>
          <CharString index="17">
            rmoveto
            -170 -91 -107 -147 -147 -91 107 170 vhcurveto
            148 vlineto
            171 91 106 147 147 91 -106 -171 vhcurveto
            269 11 rmoveto
            301 -196 189 -311 -311 -196 -189 -301 vhcurveto
            -16 callsubr
            endchar
          </CharString>
          <CharString index="18">
            244 -299 955 299 244 -882 -244 299 -955 -299 -244 vlineto
            return
          </CharString>
          <CharString index="19">
            426 1211 rmoveto
            204 hlineto
            160 94 -86 -143 -146 -96 -87 -161 hvcurveto
            -201 hlineto
            206 -218 rmoveto
            254 -531 rlineto
            320 hlineto
            -289 578 rlineto
            157 62 99 156 187 vvcurveto
            286 -192 174 -314 vhcurveto
            -524 -1443 283 531 hlineto
            return
          </CharString>
          <CharString index="20">
            -76 callgsubr
            -100 callsubr
            hvcurveto
            return
          </CharString>
          <CharString index="21">
            rmoveto
            138 82 -95 -158 hvcurveto
            -447 hlineto
            158 85 95 142 vhcurveto
            return
          </CharString>
          <CharString index="22">
            rmoveto
            -262 hlineto
            -84 -776 rlineto
            -35 hlineto
            -119 772 rlineto
            -226 hlineto
            -119 -772 rlineto
            -35 hlineto
            -85 776 rlineto
            -261 hlineto
            221 -1103 rlineto
            238 hlineto
            149 740 rlineto
            10 hlineto
            149 -740 rlineto
            238 hlineto
            return
          </CharString>
          <CharString index="23">
            -103 -30 -44 -46 -69 hhcurveto
            -91 -53 93 161 -3 hvcurveto
            13 488 103 vlineto
            349 -121 203 -209 -111 -85 -54 -104 -50 vhcurveto
            -6 hlineto
            108 -50 -76 50 -114 hhcurveto
            -178 -130 -145 -218 -18 hvcurveto
            211 hlineto
            88 9 44 53 62 hhcurveto
            77 39 -55 -116 hvcurveto
            -70 vlineto
            -146 -15 rlineto
            -211 -24 -108 -109 -192 vvcurveto
            -207 119 -137 179 127 93 67 135 57 vhcurveto
            6 hlineto
            -130 48 91 -72 116 hhcurveto
            175 116 128 246 46 hvcurveto
            return
          </CharString>
          <CharString index="24">
            rmoveto
            37 callgsubr
            -524 vlineto
            -256 115 -95 300 22 218 2 2 11 vhcurveto
            216 vlineto
            -1 -12 -191 -1 -26 hhcurveto
            -105 -59 47 83 hvcurveto
            527 406 89 callsubr
            vlineto
            return
          </CharString>
          <CharString index="25">
            rmoveto
            -113 -59 114 235 236 59 114 113 114 58 -114 -236 -235 -58 -114 -114 hvcurveto
            -538 465 rmoveto
            436 -226 -1103 226 448 143 vlineto
            -308 24 137 -163 239 hhcurveto
            268 136 189 385 386 -136 189 -268 -234 -139 -162 -297 -24 hvcurveto
            endchar
          </CharString>
          <CharString index="26">
            -80 callgsubr
            endchar
          </CharString>
          <CharString index="27">
            rmoveto
            -257 -1 -92 -129 -173 hhcurveto
            -173 -92 129 257 -1 hvcurveto
            232 vmoveto
            252 3 92 127 171 hhcurveto
            171 92 -127 -252 3 hvcurveto
            -821 -230 rmoveto
            15 callsubr
            4 callgsubr
            endchar
          </CharString>
          <CharString index="28">
            rmoveto
            139 99 210 callgsubr
            -34 -37 -52 -88 -39 138 -164 hhcurveto
            -139 -99 -110 -191 hvcurveto
            172 hlineto
            90 3 33 39 53 96 36 -138 159 hhcurveto
            return
          </CharString>
          <CharString index="29">
            120 callsubr
            280 -13 callsubr
            -241 -353 rlineto
            return
          </CharString>
          <CharString index="30">
            218 -333 885 -602 -219 336 -666 -354 -218 vlineto
            return
          </CharString>
          <CharString index="31">
            311 196 189 301 return
          </CharString>
          <CharString index="32">
            965 17 vlineto
            497 -965 rlineto
            252 -49 callgsubr
            -246 -959 -17 hlineto
            -496 959 rlineto
            -253 -1443 hlineto
            return
          </CharString>
          <CharString index="33">
            208 rlineto
            18 hlineto
            143 -208 rlineto
            return
          </CharString>
          <CharString index="34">
            rmoveto
            175 -74 95 -136 -105 -77 -69 -118 -23 vhcurveto
            -29 hlineto
            119 -23 -70 68 -100 hhcurveto
            -109 -75 -69 -127 -25 hvcurveto
            -29 173 -239 -1103 232 757 hlineto
            81 43 52 66 65 37 -47 -79 vhcurveto
            -764 229 757 vlineto
            81 43 52 65 63 39 -47 -79 vhcurveto
            -764 232 vlineto
            return
          </CharString>
          <CharString index="35">
            rmoveto
            -270 hlineto
            -275 -260 rlineto
            253 hlineto
            148 146 rlineto
            18 hlineto
            148 -146 rlineto
            253 hlineto
            return
          </CharString>
          <CharString index="36">
            439 vlineto
            127 162 394 -601 rlineto
            331 hlineto
            -529 806 497 637 rlineto
            -300 hlineto
            -505 -657 rlineto
            -15 657 -270 -1443 hlineto
            return
          </CharString>
          <CharString index="37">
            120 callsubr
            267 356 -50 callsubr
            -259 hlineto
            267 -356 rlineto
            return
          </CharString>
          <CharString index="38">
            rmoveto
            137 101 101 175 hvcurveto
            -171 hlineto
            -77 -4 -34 -33 -49 -97 -27 122 -160 hhcurveto
            -138 -100 -100 -178 hvcurveto
            172 hlineto
            77 3 32 36 51 97 27 -123 160 hhcurveto
            return
          </CharString>
          <CharString index="39">
            rmoveto
            -525 280 -49 callgsubr
            -531 vlineto
            -305 -195 -181 -284 -195 113 -156 182 -60 hvcurveto
            -355 -567 rlineto
            311 hlineto
            320 525 rlineto
            -36 218 rmoveto
            -152 -92 89 145 146 92 88 152 hvcurveto
            216 -468 hlineto
            endchar
          </CharString>
          <CharString index="40">
            346 209 239 401 return
          </CharString>
          <CharString index="41">
            1103 -494 vlineto
            -256 -166 -147 -231 -155 95 -123 151 -41 hvcurveto
            -291 -406 rlineto
            310 hlineto
            251 362 rlineto
            132 -362 hlineto
            885 vmoveto
            -324 -197 vlineto
            -111 -70 62 98 102 70 62 111 hvcurveto
            endchar
          </CharString>
          <CharString index="42">
            87 71 73 90 89 -71 73 -87 -87 -71 -73 -29 callsubr
            return
          </CharString>
          <CharString index="43">
            149 205 callsubr
            284 458 230 vlineto
            311 198 191 300 303 -192 191 -303 hvcurveto
            -244 -233 rmoveto
            172 hlineto
            186 93 -86 -173 -174 -93 -85 -186 hvcurveto
            -172 hlineto
            return
          </CharString>
          <CharString index="44">
            31 hmoveto
            285 hlineto
            301 500 rlineto
            12 hlineto
            301 -500 rlineto
            302 hlineto
            -437 723 440 720 rlineto
            -296 hlineto
            -291 -516 rlineto
            -14 hlineto
            -290 516 rlineto
            -312 hlineto
            427 -716 rlineto
            return
          </CharString>
          <CharString index="45">
            352 545 rlineto
            -300 hlineto
            -210 -372 rlineto
            -17 hlineto
            -209 372 rlineto
            -316 hlineto
            353 -557 -350 -546 rlineto
            290 hlineto
            220 370 rlineto
            return
          </CharString>
          <CharString index="46">
            629 -28 rmoveto
            398 165 287 405 hvcurveto
            139 vlineto
            399 -187 270 -383 -347 -169 -248 -248 -29 vhcurveto
            290 hlineto
            136 20 86 106 155 hhcurveto
            180 97 -132 -265 hvcurveto
            -24 -824 vlineto
            0 -6 -103 -82 vvcurveto
            -363 181 -277 373 vhcurveto
            -3 252 rmoveto
            -177 -86 148 174 hvcurveto
            23 538 -19 vlineto
            -194 -89 -132 -186 vhcurveto
            return
          </CharString>
          <CharString index="47">
            -79 callsubr
            endchar
          </CharString>
          <CharString index="48">
            69 -80 -19 callsubr
            -33 callsubr
          </CharString>
          <CharString index="49">
            rmoveto
            76 hlineto
            138 86 -94 -149 -147 -90 -96 -141 hvcurveto
            -69 hlineto
            84 -237 rmoveto
            283 177 183 295 300 -168 178 -280 hvcurveto
            -90 487 -240 -1443 hlineto
            1124 hmoveto
            -49 callgsubr
            -240 176 callgsubr
          </CharString>
          <CharString index="50">
            rmoveto
            87 72 73 89 90 -72 73 -87 -86 -72 -73 -90 -89 72 -73 86 hvcurveto
            endchar
          </CharString>
          <CharString index="51">
            -101 callsubr
            endchar
          </CharString>
          <CharString index="52">
            632 188 rmoveto
            -138 -83 94 156 hvcurveto
            448 hlineto
            -156 -85 -94 -142 vhcurveto
            -226 605 rmoveto
            72 19 88 49 109 hhcurveto
            143 94 -94 -143 hvcurveto
            -64 -712 -152 vlineto
            -294 188 -191 291 301 200 192 289 vhcurveto
            176 vlineto
            314 -184 179 -322 -255 -196 -139 -194 -22 vhcurveto
            return
          </CharString>
          <CharString index="53">
            rmoveto
            -268 -356 -22 callgsubr
            -268 356 rlineto
            return
          </CharString>
          <CharString index="54">
            rmoveto
            119 585 rlineto
            86 -585 hlineto
            639 609 rmoveto
            245 -898 vlineto
            -347 -1443 rlineto
            281 hlineto
            72 353 rlineto
            253 -353 639 245 -380 367 344 228 -344 358 hlineto
            endchar
          </CharString>
          <CharString index="55">
            35 callsubr
            -39 -54 98 callsubr
            54 hhcurveto
            165 96 -11 callsubr
            -120 7 hvcurveto
            return
          </CharString>
          <CharString index="56">
            914 221 -554 17 hlineto
            542 681 rlineto
            184 -893 -221 565 -17 vlineto
            -574 -702 rlineto
            return
          </CharString>
          <CharString index="57">
            rlineto
            -259 -32 callgsubr
            return
          </CharString>
          <CharString index="58">
            649 1328 rmoveto
            112 76 69 104 104 -76 69 -112 -112 -75 -69 -104 -104 75 -69 112 hvcurveto
            471 -1328 rmoveto
            -77 callsubr
            return
          </CharString>
          <CharString index="59">
            rmoveto
            -58 -44 45 57 57 44 45 58 58 44 -45 -57 -57 -44 -45 -58 hvcurveto
            -140 vmoveto
            131 107 109 133 133 -107 215 callgsubr
            -131 -107 -109 46 callsubr
          </CharString>
          <CharString index="60">
            -54 -46 -81 -31 -92 hhcurveto
            -136 -66 58 141 hvcurveto
            313 -274 -359 vlineto
            -248 148 -145 240 121 102 33 54 67 vhcurveto
            17 -438 return
          </CharString>
          <CharString index="61">
            rmoveto
            185 -719 -185 vlineto
            return
          </CharString>
          <CharString index="62">
            115 callgsubr
            -152 -194 rlineto
            -18 hlineto
            -152 175 callgsubr
            return
          </CharString>
          <CharString index="63">
            405 915 rmoveto
            341 258 144 -258 123 -267 -123 -127 -144 127 -1256 273 634 vlineto
            -78 callgsubr
            endchar
          </CharString>
          <CharString index="64">
            rmoveto
            -87 -71 -73 -90 -89 71 -73 87 87 71 73 89 90 -71 73 -87 hvcurveto
            -168 726 rmoveto
            152 585 rlineto
            13 hlineto
            150 -585 rlineto
            454 -575 rmoveto
            -433 -49 callgsubr
            rlineto
            -97 callgsubr
            90 -353 rlineto
            endchar
          </CharString>
          <CharString index="65">
            194 rlineto
            -247 hlineto
            280 -335 rlineto
            return
          </CharString>
          <CharString index="66">
            235 hmoveto
            219 613 rlineto
            61 -613 235 613 61 hlineto
            219 -613 rlineto
            257 hlineto
            -273 729 249 714 rlineto
            -248 hlineto
            -201 -604 rlineto
            -64 604 -235 -604 -64 hlineto
            -201 604 rlineto
            -249 hlineto
            250 -715 -272 -728 rlineto
            return
          </CharString>
          <CharString index="67">
            rmoveto
            -241 -13 callsubr
            280 -353 rlineto
            return
          </CharString>
          <CharString index="68">
            rmoveto
            -177 -89 135 256 hvcurveto
            215 vlineto
            256 89 135 177 177 89 -135 -256 vhcurveto
            -215 vlineto
            -256 -89 -135 -177 vhcurveto
            184 -677 rmoveto
            53 60 10 14 34 hvcurveto
            155 vlineto
            -5 -16 -29 -4 -31 hhcurveto
            -71 -50 44 61 71 39 51 131 101 hvcurveto
            181 144 70 168 255 vvcurveto
            221 vlineto
            397 -206 243 -349 -349 -206 -243 -397 vhcurveto
            -221 vlineto
            -382 201 -254 312 49 45 6 11 24 vhcurveto
            -17 vlineto
            -103 -68 -44 -66 -88 vvcurveto
            -123 103 -84 152 vhcurveto
            endchar
          </CharString>
          <CharString index="69">
            rmoveto
            -260 -92 -131 -174 -86 -66 32 64 -45 vhcurveto
            450 662 rlineto
            9 -44 4 -51 -57 vvcurveto
            -532 hmoveto
            260 92 131 174 86 65 -32 -63 45 vhcurveto
            -449 -662 rlineto
            -9 44 -4 50 57 vvcurveto
            832 829 rmoveto
            -154 hlineto
            -59 -87 rlineto
            75 -91 -119 41 -143 hhcurveto
            -346 -209 -239 -401 hvcurveto
            -221 vlineto
            -175 40 -144 73 -107 vhcurveto
            -125 -185 rlineto
            154 hlineto
            60 88 rlineto
            -76 91 119 -41 143 hhcurveto
            -67 callsubr
            hvcurveto
            221 vlineto
            175 -40 145 -74 107 vhcurveto
            endchar
          </CharString>
          <CharString index="70">
            rmoveto
            158 85 95 142 138 82 -95 -158 vhcurveto
            264 -175 rmoveto
            152 vlineto
            296 -187 192 -292 -300 -200 -191 -289 vhcurveto
            -177 vlineto
            -279 147 -174 259 -34 vhcurveto
            -45 -102 rlineto
            -118 59 vlineto
            88 37 -16 -40 -38 -38 -19 -70 22 callsubr
            38 87 220 23 162 130 21 177 rlinecurve
            137 callsubr
            vlineto
            endchar
          </CharString>
          <CharString index="71">
            139 195 23 vhcurveto
            return
          </CharString>
          <CharString index="72">
            rmoveto
            -170 -91 -107 -147 -64 -54 20 37 -39 vhcurveto
            380 477 rlineto
            10 -32 5 -37 -40 vvcurveto
            -476 hmoveto
            171 91 106 147 64 53 -20 -36 40 vhcurveto
            -380 -478 rlineto
            -10 33 -5 36 40 vvcurveto
            756 626 rmoveto
            -156 hlineto
            -50 -62 rlineto
            55 -82 -106 30 -124 182 callsubr
            -131 37 -109 67 -83 vhcurveto
            -114 -143 rlineto
            154 hlineto
            50 62 rlineto
            -56 82 106 -30 125 hhcurveto
            194 callgsubr
            131 -37 109 -67 83 vhcurveto
            endchar
          </CharString>
          <CharString index="73">
            rmoveto
            17 -728 255 1103 -268 hlineto
            -452 -720 rlineto
            -17 720 -255 -1103 268 hlineto
            endchar
          </CharString>
          <CharString index="74">
            hvcurveto
            462 129 callsubr
          </CharString>
          <CharString index="75">
            -193 rmoveto
            -269 -188 -20 hlineto
            125 -36 -123 81 -160 hhcurveto
            -264 -155 -173 -301 hvcurveto
            -167 vlineto
            -298 152 -176 254 164 128 83 124 34 vhcurveto
            21 -217 hlineto
            -138 -84 -72 -159 -121 -88 45 71 -19 vhcurveto
            -267 hlineto
            -196 18 187 -121 286 hhcurveto
            322 199 159 257 hvcurveto
            -747 646 rmoveto
            150 91 94 143 144 91 -94 -150 vhcurveto
            -159 vlineto
            -150 -91 -94 -144 -143 -91 94 150 vhcurveto
            endchar
          </CharString>
          <CharString index="76">
            1144 251 rmoveto
            -632 1192 -281 -1443 913 hlineto
            return
          </CharString>
          <CharString index="77">
            49 callgsubr
            -193 hlineto
            -104 -2 -77 -68 -114 hhcurveto
            -114 -77 68 104 -2 hvcurveto
            endchar
          </CharString>
          <CharString index="78">
            -89 -90 81 callgsubr
            return
          </CharString>
          <CharString index="79">
            828 619 rmoveto
            229 -178 vlineto
            -146 -95 78 122 120 93 75 145 147 98 -81 -127 7 hvcurveto
            261 hlineto
            268 -8 -202 169 -311 hhcurveto
            -297 -203 -157 -230 -165 105 -129 158 -32 hvcurveto
            -17 vlineto
            -194 -18 -125 -128 -193 vvcurveto
            -256 229 -176 330 317 217 175 268 11 vhcurveto
            -271 hlineto
            -124 -8 -109 -78 -160 hhcurveto
            -161 -103 80 129 125 99 73 171 hvcurveto
            return
          </CharString>
          <CharString index="80">
            45 callgsubr
            -79 13 callsubr
            79 hvcurveto
            455 hmoveto
            100 callgsubr
            return
          </CharString>
          <CharString index="81">
            -50 -60 -87 -25 -116 hhcurveto
            -166 -95 99 177 hvcurveto
            404 -285 -420 vlineto
            -310 177 -205 306 124 108 22 50 78 vhcurveto
            16 return
          </CharString>
          <CharString index="82">
            631 -24 rmoveto
            294 190 141 244 26 hvcurveto
            -261 hlineto
            -109 -30 -83 -50 -136 hhcurveto
            -134 -82 52 85 82 74 47 131 hvcurveto
            165 188 -157 hlineto
            -121 -68 44 78 80 76 49 125 129 75 -47 -98 19 hvcurveto
            259 hlineto
            237 -26 -168 127 -287 hhcurveto
            -293 -175 -118 -201 -108 63 -82 109 -31 hvcurveto
            -17 vlineto
            -133 -37 -73 -88 -122 vvcurveto
            -213 190 -133 302 vhcurveto
            return
          </CharString>
          <CharString index="83">
            909 -24 rmoveto
            205 99 174 363 250 -51 208 -90 132 hvcurveto
            -244 hlineto
            104 -170 42 -184 -283 vvcurveto
            -176 -33 -74 -81 -80 -34 80 136 vhcurveto
            339 -226 -339 vlineto
            -136 -34 -80 -80 -81 -33 74 176 283 42 184 104 170 vhcurveto
            -244 hlineto
            -90 -133 -51 -208 -249 vvcurveto
            -363 99 -174 205 127 86 75 153 56 vhcurveto
            14 hlineto
            -153 56 86 -75 127 hhcurveto
            return
          </CharString>
          <CharString index="84">
            1601 -94 callgsubr
            return
          </CharString>
          <CharString index="85">
            80 67 68 84 83 -67 68 -80 return
          </CharString>
          <CharString index="86">
            592 -29 rmoveto
            305 180 177 303 hvcurveto
            992 -803 -244 518 -744 vlineto
            -147 -72 -80 -132 -121 -83 79 121 -3 vhcurveto
            -274 hlineto
            -278 1 190 -179 294 hhcurveto
            return
          </CharString>
          <CharString index="87">
            57 callgsubr
            -76 callsubr
            vhcurveto
            return
          </CharString>
          <CharString index="88">
            -79 -68 -69 -83 -83 68 -69 79 return
          </CharString>
          <CharString index="89">
            756 1120 rmoveto
            96 callsubr
            hvcurveto
            -21 55 callsubr
            hlineto
            -7 callgsubr
            vhcurveto
            -105 -238 rmoveto
            141 87 -93 -151 hvcurveto
            -183 vlineto
            -151 -87 -93 -141 -142 -86 92 152 vhcurveto
            183 vlineto
            152 86 92 142 vhcurveto
            return
          </CharString>
          <CharString index="90">
            16 callsubr
            1295 -202 return
          </CharString>
          <CharString index="91">
            -170 -20 callsubr
            return
          </CharString>
          <CharString index="92">
            -22 callsubr
            -80 -67 -68 -83 -84 136 callgsubr
            return
          </CharString>
          <CharString index="93">
            -195 0 callsubr
            return
          </CharString>
          <CharString index="94">
            353 rlineto
            -301 hlineto
            return
          </CharString>
          <CharString index="95">
            867 759 rmoveto
            158 32 106 132 162 vvcurveto
            230 -203 157 -297 -311 -202 -169 -268 -8 vhcurveto
            261 hlineto
            127 7 98 81 146 hhcurveto
            146 93 -75 -120 -122 -95 -78 -146 hvcurveto
            -178 -229 183 hlineto
            171 99 -73 -125 -127 -103 -82 -161 -160 -109 78 124 -8 hvcurveto
            -271 hlineto
            10 return
          </CharString>
          <CharString index="96">
            75 130 109 -65 63 return
          </CharString>
          <CharString index="97">
            649 -25 rmoveto
            297 174 144 252 28 hvcurveto
            -256 hlineto
            -109 -23 -80 -58 -134 hhcurveto
            -162 -87 89 177 -11 hvcurveto
            420 187 -418 hlineto
            162 15 88 80 155 hhcurveto
            133 79 -63 -108 25 hvcurveto
            255 hlineto
            249 -28 -176 149 -294 hhcurveto
            -341 -186 -202 -371 -375 186 -203 341 hvcurveto
            return
          </CharString>
          <CharString index="98">
            77 callsubr
            205 hlineto
            106 1 69 71 116 hhcurveto
            116 69 -71 -106 2 hvcurveto
            return
          </CharString>
          <CharString index="99">
            -578 -6 callsubr
          </CharString>
          <CharString index="100">
            116 callsubr
            -29 -186 rmoveto
            32 hlineto
            132 38 -123 -405 -425 -37 -118 -133 hvcurveto
            -32 hlineto
            473 -186 rmoveto
            553 186 -322 17 hlineto
            311 716 rlineto
            184 -530 -186 319 -17 vlineto
            -331 -737 rlineto
            endchar
          </CharString>
          <CharString index="101">
            -85 callgsubr
            endchar
          </CharString>
          <CharString index="102">
            rmoveto
            13 28 42 9 41 hhcurveto
            67 41 -33 -48 -43 -42 -40 -61 -23 hvcurveto
            88 -110 rlineto
            -4 callsubr
            -36 vhcurveto
            return
          </CharString>
          <CharString index="103">
            120 184 callsubr
            -100 83 -138 -65 -56 -13 -14 return
          </CharString>
          <CharString index="104">
            rmoveto
            -116 -69 72 105 162 callgsubr
            -143 146 callgsubr
            153 143 127 callgsubr
            -105 -2 -69 -72 -116 hhcurveto
            endchar
          </CharString>
          <CharString index="105">
            rmoveto
            165 354 rlineto
            -275 hlineto
            -131 158 callgsubr
          </CharString>
          <CharString index="106">
            rmoveto
            13 28 43 9 41 hhcurveto
            66 42 114 callgsubr
            88 -110 rlineto
            return
          </CharString>
          <CharString index="107">
            hvcurveto
            185 hlineto
            89 29 51 52 vhcurveto
            return
          </CharString>
          <CharString index="108">
            80 58 callsubr
            -80 -19 callsubr
            hvcurveto
            return
          </CharString>
          <CharString index="109">
            1469 455 rmoveto
            210 return
          </CharString>
          <CharString index="110">
            532 237 rmoveto
            417 144 vlineto
            167 96 -75 -134 -133 -96 -75 -167 hvcurveto
            -144 650 rmoveto
            160 448 221 -448 175 -285 -175 -247 -221 247 -1047 504 vlineto
            286 191 178 266 266 -197 177 -295 hvcurveto
            endchar
          </CharString>
          <CharString index="111">
            508 218 rmoveto
            316 183 vlineto
            131 63 -60 -98 -98 -63 -60 -131 hvcurveto
            -183 532 rmoveto
            182 433 171 -433 420 -274 -420 -220 -171 220 -932 501 vlineto
            273 148 142 233 232 -148 143 -273 hvcurveto
            endchar
          </CharString>
          <CharString index="112">
            284 hmoveto
            686 -285 250 503 -158 885 -795 hlineto
            -8 -143 -11 -165 -16 -249 -13 -186 -37 -104 -68 -38 rrcurveto
            -79 -503 249 hlineto
            107 503 rmoveto
            24 vlineto
            42 46 28 69 11 102 12 99 14 171 6 156 rrcurveto
            291 -667 hlineto
            endchar
          </CharString>
          <CharString index="113">
            rmoveto
            -1266 -1285 rlineto
            -158 vlineto
            1266 1285 rlineto
            endchar
          </CharString>
          <CharString index="114">
            -89 callsubr
            endchar
          </CharString>
          <CharString index="115">
            -220 178 -663 -178 -220 668 220 -216 657 345 -174 231 return
          </CharString>
          <CharString index="116">
            rmoveto
            260 hlineto
            311 109 callgsubr
            return
          </CharString>
          <CharString index="117">
            649 283 rmoveto
            -13 hlineto
            -297 1160 106 callsubr
            433 -1443 rlineto
            336 hlineto
            433 -49 callgsubr
            rlineto
            -284 hlineto
            return
          </CharString>
          <CharString index="118">
            142 30 callgsubr
            -129 -195 hvcurveto
            return
          </CharString>
          <CharString index="119">
            83 -115 -117 -86 -83 -113 -114 87 -85 116 hvcurveto
            -1 104 rmoveto
            -54 -41 40 54 54 41 39 54 54 41 -39 -54 -54 return
          </CharString>
          <CharString index="120">
            -64 -66 -82 -82 64 -66 return
          </CharString>
          <CharString index="121">
            -49 callgsubr
            -264 177 callgsubr
            720 -36 rmoveto
            235 121 152 296 hvcurveto
            1031 -614 -245 351 -761 vlineto
            -161 -30 -55 -72 -68 -35 58 142 -3 vhcurveto
            -253 hlineto
            -303 127 -154 241 vhcurveto
            endchar
          </CharString>
          <CharString index="122">
            -401 209 -239 346 -67 callsubr
            vhcurveto
            return
          </CharString>
          <CharString index="123">
            2 callsubr
            -735 return
          </CharString>
          <CharString index="124">
            -179 -92 119 229 hvcurveto
            return
          </CharString>
          <CharString index="125">
            -170 105 -108 207 -45 return
          </CharString>
          <CharString index="126">
            96 133 callgsubr
            return
          </CharString>
          <CharString index="127">
            -118 59 vlineto
            88 37 -16 -40 -38 return
          </CharString>
          <CharString index="128">
            rmoveto
            225 hlineto
            94 58 callgsubr
            -239 -366 rmoveto
            76 64 64 79 78 -64 65 -76 -75 109 callsubr
            75 hvcurveto
            728 hmoveto
            43 callgsubr
            endchar
          </CharString>
          <CharString index="129">
            44 callsubr
            38 47 -14 callgsubr
            return
          </CharString>
          <CharString index="130">
            rmoveto
            -58 -45 45 57 57 45 45 58 57 45 -45 -57 -57 -45 -45 -57 hvcurveto
            -140 vmoveto
            131 107 109 133 133 -107 215 callgsubr
            -131 -108 145 callgsubr
            108 -109 131 hvcurveto
            endchar
          </CharString>
          <CharString index="131">
            -476 rmoveto
            -98 callsubr
            return
          </CharString>
          <CharString index="132">
            166 175 -621 609 -621 -609 166 -175 208 222 142 178 rlineto
            11 hlineto
            -22 return
          </CharString>
          <CharString index="133">
            444 hmoveto
            274 873 439 219 -445 96 hlineto
            82 53 42 103 26 242 -1 -2 21 vhcurveto
            201 vlineto
            2 -16 -254 2 -27 hhcurveto
            -298 -118 -94 -250 hvcurveto
            -78 -294 -219 294 vlineto
            return
          </CharString>
          <CharString index="134">
            rmoveto
            87 72 73 90 89 -72 73 -87 -86 -72 -73 153 callsubr
            86 hvcurveto
            endchar
          </CharString>
          <CharString index="135">
            161 callsubr
            247 hlineto
            153 194 rlineto
            17 hlineto
            152 -194 136 callsubr
            return
          </CharString>
          <CharString index="136">
            rmoveto
            36 callsubr
            return
          </CharString>
          <CharString index="137">
            1593 -79 callsubr
            return
          </CharString>
          <CharString index="138">
            rmoveto
            79 48 -143 147 190 callgsubr
            128 201 callgsubr
            -87 -28 -48 -53 vhcurveto
            -79 -48 11 callsubr
            184 hlineto
            89 1 29 51 52 hhcurveto
            endchar
          </CharString>
          <CharString index="139">
            hlineto
            -622 -354 rmoveto
            221 hlineto
            224 126 callgsubr
            endchar
          </CharString>
          <CharString index="140">
            -16 callgsubr
            -1211 return
          </CharString>
          <CharString index="141">
            rmoveto
            100 callgsubr
            13 callsubr
            78 hvcurveto
            return
          </CharString>
          <CharString index="142">
            20 callsubr
            -37 -19 -71 return
          </CharString>
          <CharString index="143">
            -248 hlineto
            224 -354 rlineto
            return
          </CharString>
          <CharString index="144">
            rmoveto
            226 704 -219 hlineto
            -179 -134 rlineto
            -194 vlineto
            168 131 rlineto
            4 hlineto
            1094 197 6 callsubr
          </CharString>
          <CharString index="145">
            vlineto
            22 -249 rlineto
            -11 hlineto
            -142 178 -208 223 -166 -176 621 -609 621 609 -166 176 -208 -223 -142 -178 rlineto
            -11 hlineto
            22 249 rlineto
            return
          </CharString>
          <CharString index="146">
            1833 -66 callgsubr
            endchar
          </CharString>
          <CharString index="147">
            -38 -858 rlineto
            -239 -10 -46 -92 -106 hhcurveto
            -21 -22 3 5 -16 hvcurveto
            -262 vlineto
            -8 25 39 -5 35 hhcurveto
            244 121 184 393 18 hvcurveto
            31 634 rlineto
            363 -1198 return
          </CharString>
          <CharString index="148">
            rmoveto
            105 105 -105 hlineto
            -211 -105 rmoveto
            106 105 209 callgsubr
            -105 rmoveto
            return
          </CharString>
          <CharString index="149">
            79 58 callsubr
            -79 -95 callgsubr
            return
          </CharString>
          <CharString index="150">
            117 186 hvcurveto
            -179 hlineto
            -91 -2 -26 -40 -58 -85 -44 137 return
          </CharString>
          <CharString index="151">
            -40 -53 3 callgsubr
            return
          </CharString>
          <CharString index="152">
            210 -654 1295 -364 return
          </CharString>
          <CharString index="153">
            -133 -133 107 -109 131 hvcurveto
            endchar
          </CharString>
          <CharString index="154">
            107 callgsubr
            70 166 callsubr
            -99 204 callgsubr
          </CharString>
          <CharString index="155">
            -247 hlineto
            -153 101 callsubr
            -153 194 rlineto
            -246 hlineto
            280 -335 rlineto
            return
          </CharString>
          <CharString index="156">
            634 vlineto
            152 93 98 144 139 68 -79 -161 vhcurveto
            return
          </CharString>
          <CharString index="157">
            633 24 callsubr
            return
          </CharString>
          <CharString index="158">
            rmoveto
            42 callsubr
            461 129 callsubr
          </CharString>
          <CharString index="159">
            rmoveto
            -15 callsubr
            462 -52 callgsubr
            endchar
          </CharString>
          <CharString index="160">
            rmoveto
            165 354 rlineto
            -275 hlineto
            -132 158 callgsubr
          </CharString>
          <CharString index="161">
            -203 hlineto
            167 callsubr
            rmoveto
            1295 -203 -1085 -532 -210 vlineto
            return
          </CharString>
          <CharString index="162">
            190 -281 -1470 285 554 20 return
          </CharString>
          <CharString index="163">
            -1295 202 61 callsubr
          </CharString>
          <CharString index="164">
            1672 206 callsubr
            hlineto
            return
          </CharString>
          <CharString index="165">
            68 69 83 83 -68 69 return
          </CharString>
          <CharString index="166">
            263 63 callgsubr
            return
          </CharString>
          <CharString index="167">
            rmoveto
            -257 207 callgsubr
            -52 -46 -139 -33 -221 1 2 -19 vhcurveto
            -226 vlineto
            -2 27 210 -1 37 hhcurveto
            325 122 168 callgsubr
            return
          </CharString>
          <CharString index="168">
            1295 vlineto
            endchar
          </CharString>
          <CharString index="169">
            -378 735 -1211 202 50 callgsubr
          </CharString>
          <CharString index="170">
            hvcurveto
            135 -329 rmoveto
            275 266 rlineto
            -253 hlineto
            -148 -146 rlineto
            -18 hlineto
            -148 146 rlineto
            -253 hlineto
            275 -266 rlineto
            endchar
          </CharString>
          <CharString index="171">
            -94 -2 -73 -62 -118 hhcurveto
            -118 -73 62 94 -2 hvcurveto
            return
          </CharString>
          <CharString index="172">
            115 callgsubr
            -153 101 callsubr
            return
          </CharString>
          <CharString index="173">
            hlineto
            276 -318 rlineto
            return
          </CharString>
          <CharString index="174">
            33 hvcurveto
            -281 hlineto
            -112 -31 -85 -53 -155 hhcurveto
            -129 -81 46 89 83 75 40 134 hvcurveto
            140 194 -139 hlineto
            -130 -69 38 return
          </CharString>
          <CharString index="175">
            rmoveto
            -204 149 -137 221 220 150 137 204 vhcurveto
            -208 hlineto
            -107 -2 -66 -72 -94 hhcurveto
            -95 -65 103 callgsubr
            endchar
          </CharString>
          <CharString index="176">
            -69 -71 -116 hhcurveto
            return
          </CharString>
          <CharString index="177">
            -65 -3 -34 -31 -47 -88 -39 115 -148 hhcurveto
            -128 -93 -93 -155 hvcurveto
            163 hlineto
            60 2 32 33 49 88 39 -115 148 hhcurveto
            return
          </CharString>
          <CharString index="178">
            204 -149 138 -221 -221 -149 -138 -204 vhcurveto
            207 hlineto
            108 3 66 71 94 hhcurveto
            94 66 -71 -108 3 hvcurveto
            return
          </CharString>
          <CharString index="179">
            -1296 rmoveto
            87 callgsubr
          </CharString>
          <CharString index="180">
            1295 -735 -210 532 -1085 vlineto
            endchar
          </CharString>
          <CharString index="181">
            770 159 callgsubr
            -623 354 29 callsubr
            222 hlineto
            return
          </CharString>
          <CharString index="182">
            -75 callsubr
            endchar
          </CharString>
          <CharString index="183">
            152 callgsubr
            -1295 203 1085 vlineto
            return
          </CharString>
          <CharString index="184">
            144 -238 -238 -153 -144 -211 vhcurveto
            return
          </CharString>
          <CharString index="185">
            153 callsubr
            87 hvcurveto
            return
          </CharString>
          <CharString index="186">
            88 callsubr
            -144 -208 rlineto
            -17 hlineto
            -144 208 rlineto
            -259 hlineto
            268 -356 rlineto
            return
          </CharString>
          <CharString index="187">
            292 rmoveto
            -161 262 rlineto
            -265 hlineto
            188 -262 rlineto
            endchar
          </CharString>
          <CharString index="188">
            636 rmoveto
            -340 -418 rlineto
            259 hlineto
            341 418 rlineto
            7 vlineto
            -341 418 rlineto
            -259 hlineto
            340 -418 rlineto
            return
          </CharString>
          <CharString index="189">
            rmoveto
            -1166 -244 234 -955 -234 -244 770 244 -252 955 394 -224 254 hlineto
            endchar
          </CharString>
          <CharString index="190">
            rmoveto
            105 106 -105 hlineto
            -211 211 callgsubr
            return
          </CharString>
          <CharString index="191">
            9 41 hhcurveto
            67 41 -33 -48 -43 -42 -40 return
          </CharString>
          <CharString index="192">
            633 1024 -633 hlineto
            return
          </CharString>
          <CharString index="193">
            115 callgsubr
            -152 123 callgsubr
            return
          </CharString>
          <CharString index="194">
            -210 532 -1295 203 1295 202 hlineto
            endchar
          </CharString>
          <CharString index="195">
            120 callsubr
            268 199 callsubr
            return
          </CharString>
          <CharString index="196">
            219 -411 326 return
          </CharString>
          <CharString index="197">
            hlineto
            312 -318 rlineto
            return
          </CharString>
          <CharString index="198">
            161 callsubr
            247 hlineto
            152 102 callsubr
          </CharString>
          <CharString index="199">
            18 callgsubr
            17 callsubr
            return
          </CharString>
          <CharString index="200">
            -1 -28 -48 -52 -80 133 callsubr
            return
          </CharString>
          <CharString index="201">
            -32 3 2 -20 114 callsubr
            44 hhcurveto
            236 125 119 callsubr
          </CharString>
          <CharString index="202">
            rmoveto
            133 652 rlineto
            -273 hlineto
            -111 -652 rlineto
            endchar
          </CharString>
          <CharString index="203">
            -161 -109 -74 -133 -39 return
          </CharString>
          <CharString index="204">
            164 callgsubr
            -276 -318 rlineto
            259 hlineto
            return
          </CharString>
          <CharString index="205">
            3 callgsubr
            39 46 -7 return
          </CharString>
          <CharString index="206">
            -268 -8 -143 rrcurveto
            -187 -12 return
          </CharString>
          <CharString index="207">
            rmoveto
            203 188 callsubr
            hlineto
            return
          </CharString>
          <CharString index="208">
            -194 rlineto
            -17 hlineto
            return
          </CharString>
          <CharString index="209">
            194 rlineto
            17 hlineto
            153 -194 136 callsubr
            endchar
          </CharString>
          <CharString index="210">
            187 callgsubr
            hvcurveto
            -260 602 rmoveto
            -270 hlineto
            206 -241 rlineto
            229 hlineto
            return
          </CharString>
          <CharString index="211">
            -203 665 148 callsubr
            return
          </CharString>
          <CharString index="212">
            114 231 hvcurveto
            -49 callgsubr
            vlineto
            endchar
          </CharString>
          <CharString index="213">
            rlineto
            -307 hlineto
            return
          </CharString>
          <CharString index="214">
            -198 151 -138 235 235 return
          </CharString>
          <CharString index="215">
            -464 vmoveto
            1266 return
          </CharString>
          <CharString index="216">
            -64 -65 -78 -79 64 -64 return
          </CharString>
          <CharString index="217">
            177 callsubr
            -251 173 callsubr
            -249 hlineto
            return
          </CharString>
          <CharString index="218">
            -452 -720 rlineto
            -17 720 -255 -1103 268 hlineto
            452 728 rlineto
            17 -728 return
          </CharString>
          <CharString index="219">
            170 vlineto
            301 -196 189 -311 -311 -196 -189 -301 vhcurveto
            -170 vlineto
            return
          </CharString>
          <CharString index="220">
            134 652 rlineto
            -220 hlineto
            -116 -652 rlineto
            return
          </CharString>
          <CharString index="221">
            vhcurveto
            -225 vlineto
            -3 32 53 -5 return
          </CharString>
          <CharString index="222">
            110 vvcurveto
            125 return
          </CharString>
          <CharString index="223">
            176 callsubr
            231 vlineto
            296 88 158 571 554 -90 160 -294 hvcurveto
            return
          </CharString>
          <CharString index="224">
            -364 -1211 -654 62 callsubr
          </CharString>
          <CharString index="225">
            129 1103 rmoveto
            -226 367 -877 274 877 367 226 vlineto
            endchar
          </CharString>
          <CharString index="226">
            118 220 hvcurveto
            1106 vlineto
            endchar
          </CharString>
          <CharString index="227">
            1296 rmoveto
            return
          </CharString>
          <CharString index="228">
            -83 callgsubr
            462 hmoveto
            return
          </CharString>
          <CharString index="229">
            113 121 92 141 18 rrcurveto
            110 vlineto
            -117 -8 -124 -58 -79 -82 rrcurveto
            return
          </CharString>
          <CharString index="230">
            -248 hlineto
            -136 -19 -69 -106 -128 hhcurveto
            -151 -83 132 265 hvcurveto
            endchar
          </CharString>
          <CharString index="231">
            29 callsubr
            221 hlineto
            return
          </CharString>
          <CharString index="232">
            rmoveto
            227 hlineto
            276 318 rlineto
            return
          </CharString>
          <CharString index="233">
            138 -235 -235 return
          </CharString>
          <CharString index="234">
            -735 157 callsubr
            return
          </CharString>
          <CharString index="235">
            -151 rmoveto
            -87 -71 -73 -90 -89 71 -73 87 87 71 73 89 90 -71 73 -87 hvcurveto
            return
          </CharString>
          <CharString index="236">
            -97 callsubr
            endchar
          </CharString>
          <CharString index="237">
            46 callgsubr
            endchar
          </CharString>
          <CharString index="238">
            813 rmoveto
            157 -115 121 -152 -72 -63 -27 -49 -43 vhcurveto
            -15 hlineto
            return
          </CharString>
          <CharString index="239">
            108 43 58 78 98 vvcurveto
            114 -90 73 -138 -51 -49 -8 -12 -31 vhcurveto
            return
          </CharString>
          <CharString index="240">
            -48 10 callgsubr
            return
          </CharString>
          <CharString index="241">
            hlineto
            150 callsubr
            return
          </CharString>
          <CharString index="242">
            111 187 hvcurveto
            return
          </CharString>
          <CharString index="243">
            rlineto
            247 hlineto
            return
          </CharString>
          <CharString index="244">
            -258 hlineto
            -72 -20 -87 -50 -110 hhcurveto
            -143 -93 94 144 hvcurveto
            60 return
          </CharString>
          <CharString index="245">
            rmoveto
            -65 callsubr
            return
          </CharString>
          <CharString index="246">
            162 callsubr
            79 64 66 82 82 -64 66 -79 hvcurveto
            return
          </CharString>
          <CharString index="247">
            101 79 76 98 98 -79 76 -101 return
          </CharString>
          <CharString index="248">
            -101 -79 -76 -98 -98 79 -76 101 return
          </CharString>
          <CharString index="249">
            335 191 callgsubr
            return
          </CharString>
          <CharString index="250">
            vhcurveto
            17 -185 265 return
          </CharString>
          <CharString index="251">
            1259 rmoveto
            211 return
          </CharString>
          <CharString index="252">
            208 callsubr
            endchar
          </CharString>
          <CharString index="253">
            -184 145 -120 231 231 145 120 184 vhcurveto
            return
          </CharString>
          <CharString index="254">
            152 callsubr
            1505 -81 1295 167 callsubr
            return
          </CharString>
          <CharString index="255">
            rmoveto
            57 callsubr
            return
          </CharString>
          <CharString index="256">
            -210 186 callsubr
            return
          </CharString>
          <CharString index="257">
            -211 153 67 callgsubr
            return
          </CharString>
          <CharString index="258">
            129 192 hvcurveto
            return
          </CharString>
          <CharString index="259">
            815 -840 rmoveto
            return
          </CharString>
          <CharString index="260">
            -89 -90 72 -73 return
          </CharString>
          <CharString index="261">
            451 371 rmoveto
            1018 378 -654 1211 -364 return
          </CharString>
          <CharString index="262">
            rmoveto
            164 354 rlineto
            -274 hlineto
            -132 158 callgsubr
          </CharString>
          <CharString index="263">
            -378 735 -1211 vlineto
            endchar
          </CharString>
          <CharString index="264">
            -210 735 return
          </CharString>
          <CharString index="265">
            -522 rmoveto
            127 95 93 126 127 -95 93 -127 return
          </CharString>
          <CharString index="266">
            vhcurveto
            -53 vlineto
            -210 115 -134 182 vhcurveto
            171 vmoveto
            return
          </CharString>
          <CharString index="267">
            157 callsubr
            56 callsubr
          </CharString>
          <CharString index="268">
            rmoveto
            -256 hlineto
            -280 -335 rlineto
            return
          </CharString>
          <CharString index="269">
            rmoveto
            187 callgsubr
            return
          </CharString>
          <CharString index="270">
            -378 654 -1211 return
          </CharString>
          <CharString index="271">
            116 callgsubr
            203 return
          </CharString>
          <CharString index="272">
            -106 167 callgsubr
            return
          </CharString>
          <CharString index="273">
            85 115 callsubr
            return
          </CharString>
          <CharString index="274">
            -202 -1295 return
          </CharString>
          <CharString index="275">
            92 142 141 return
          </CharString>
          <CharString index="276">
            225 rmoveto
            878 return
          </CharString>
          <CharString index="277">
            -105 rmoveto
            105 105 -105 hlineto
            210 -105 rmoveto
            106 105 -106 hlineto
            return
          </CharString>
          <CharString index="278">
            -202 -1085 127 callsubr
            -210 -735 return
          </CharString>
          <CharString index="279">
            -43 -43 194 callsubr
            return
          </CharString>
          <CharString index="280">
            66 callsubr
            227 hlineto
            -672 318 rmoveto
            return
          </CharString>
          <CharString index="281">
            370 rmoveto
            -237 hlineto
            236 -335 rlineto
            190 hlineto
            return
          </CharString>
          <CharString index="282">
            -106 rmoveto
            105 106 -105 hlineto
            -211 -106 rmoveto
            105 106 -105 hlineto
            return
          </CharString>
          <CharString index="283">
            rmoveto
            -1443 return
          </CharString>
          <CharString index="284">
            1920 rmoveto
            return
          </CharString>
          <CharString index="285">
            -83 -44 -111 -125 vvcurveto
            -212 130 -144 return
          </CharString>
          <CharString index="286">
            1000 2136 rmoveto
            -731 -167 731 hlineto
            return
          </CharString>
          <CharString index="287">
            126 callsubr
            -151 169 callgsubr
            return
          </CharString>
          <CharString index="288">
            rmoveto
            106 106 -106 hlineto
            -210 -106 rmoveto
            105 106 -105 hlineto
            return
          </CharString>
          <CharString index="289">
            hhcurveto
            -311 -196 -189 -301 hvcurveto
            -170 vlineto
            return
          </CharString>
          <CharString index="290">
            -112 -75 -69 -104 -104 75 -69 112 hvcurveto
            endchar
          </CharString>
          <CharString index="291">
            48 71 166 callsubr
            return
          </CharString>
          <CharString index="292">
            hlineto
            165 callsubr
            return
          </CharString>
          <CharString index="293">
            rmoveto
            237 210 -237 hlineto
            return
          </CharString>
          <CharString index="294">
            rmoveto
            167 -730 -167 vlineto
            return
          </CharString>
          <CharString index="295">
            2800 -203 return
          </CharString>
          <CharString index="296">
            1211 -202 return
          </CharString>
          <CharString index="297">
            vhcurveto
            -204 hlineto
            return
          </CharString>
          <CharString index="298">
            108 -67 73 -112 -112 -68 -73 -108 return
          </CharString>
          <CharString index="299">
            153 114 -111 -150 -150 -114 return
          </CharString>
          <CharString index="300">
            rmoveto
            735 210 -532 1085 -203 hlineto
            return
          </CharString>
          <CharString index="301">
            -40 -61 -23 hvcurveto
            88 -110 rlineto
            120 48 71 return
          </CharString>
          <CharString index="302">
            153 67 callgsubr
            153 144 return
          </CharString>
          <CharString index="303">
            -268 85 callgsubr
            return
          </CharString>
          <CharString index="304">
            371 rmoveto
            937 378 -937 hlineto
            endchar
          </CharString>
          <CharString index="305">
            -141 -87 93 152 return
          </CharString>
          <CharString index="306">
            356 rlineto
            -259 hlineto
            return
          </CharString>
          <CharString index="307">
            hlineto
            236 335 rlineto
            return
          </CharString>
          <CharString index="308">
            -152 -86 -93 return
          </CharString>
          <CharString index="309">
            1540 rmoveto
            -719 -184 719 hlineto
            return
          </CharString>
          <CharString index="310">
            168 123 121 167 vhcurveto
            endchar
          </CharString>
          <CharString index="311">
            -168 -123 -121 -167 vhcurveto
            endchar
          </CharString>
          <CharString index="312">
            1443 176 callsubr
            return
          </CharString>
          <CharString index="313">
            210 -1672 return
          </CharString>
          <CharString index="314">
            8 42 hhcurveto
            68 return
          </CharString>
          <CharString index="315">
            -13 -14 -36 vhcurveto
            return
          </CharString>
          <CharString index="316">
            198 -151 126 callsubr
            return
          </CharString>
          <CharString index="317">
            560 vmoveto
            85 callsubr
            return
          </CharString>
          <CharString index="318">
            152 72 63 27 49 43 vhcurveto
            15 hlineto
            return
          </CharString>
          <CharString index="319">
            726 rlineto
            -287 -1103 211 hlineto
            return
          </CharString>
          <CharString index="320">
            633 2048 -633 hlineto
            endchar
          </CharString>
          <CharString index="321">
            rlineto
            -258 hlineto
            return
          </CharString>
          <CharString index="322">
            -210 654 return
          </CharString>
          <CharString index="323">
            -202 hlineto
            endchar
          </CharString>
          <CharString index="324">
            -1103 vlineto
            endchar
          </CharString>
        <CharString name=".notdef">
          endchar
        </CharString>
        <CharString name="A">
          465 575 -105 callgsubr
        </CharString>
        <CharString name="AE">
          403 589 -53 callsubr
        </CharString>
        <CharString name="AEacute">
          1223 177 callsubr
          -294 hlineto
          -277 -318 rlineto
          260 hlineto
          -509 -1013 -53 callsubr
        </CharString>
        <CharString name="AEmacron">
          1152 1841 rmoveto
          -719 -185 719 hlineto
          -749 -1067 -53 callsubr
        </CharString>
        <CharString name="Aacute">
          1064 97 callsubr
          -287 -1027 -105 callgsubr
        </CharString>
        <CharString name="Abreve">
          826 15 callgsubr
          151 138 198 vhcurveto
          -554 -1352 -105 callgsubr
        </CharString>
        <CharString name="Abreveacute">
          920 2164 rmoveto
          -247 hlineto
          -165 -250 rlineto
          206 hlineto
          112 -15 rmoveto
          64 callsubr
          -193 hlineto
          42 callgsubr
          -554 -1324 -105 callgsubr
        </CharString>
        <CharString name="Abrevedotbelow">
          826 15 callgsubr
          151 138 198 vhcurveto
          -386 -2078 -43 callsubr
        </CharString>
        <CharString name="Abrevegrave">
          132 callgsubr
          274 -15 rmoveto
          64 callsubr
          -193 hlineto
          42 callgsubr
          -554 -1324 -105 callgsubr
        </CharString>
        <CharString name="Abrevehookabove">
          634 1794 rmoveto
          132 callsubr
          -134 vlineto
          154 callgsubr
          291 -21 rmoveto
          174 callgsubr
          -174 hlineto
          146 callsubr
          -544 -1294 -105 callgsubr
        </CharString>
        <CharString name="Abrevetilde">
          842 2160 rmoveto
          70 callsubr
          127 94 94 157 hvcurveto
          -741 -308 68 callgsubr
          18 -1277 -105 callgsubr
        </CharString>
        <CharString name="Acaron">
          761 1594 rmoveto
          280 335 rlineto
          -247 hlineto
          -152 -194 rlineto
          -18 hlineto
          -152 -42 callsubr
          -40 -1019 -105 callgsubr
        </CharString>
        <CharString name="Acircumflex">
          80 callgsubr
          -7 -1027 -105 callgsubr
        </CharString>
        <CharString name="Acircumflexacute">
          1306 2164 rmoveto
          -255 hlineto
          -184 -287 rlineto
          227 hlineto
          -470 -151 rmoveto
          18 hlineto
          148 -146 rlineto
          253 hlineto
          -275 260 rlineto
          -270 hlineto
          -275 -260 rlineto
          253 hlineto
          -11 -1005 rmoveto
          152 585 rlineto
          13 hlineto
          150 -585 rlineto
          -315 868 rmoveto
          112 callgsubr
          -433 -49 callgsubr
          rlineto
          endchar
        </CharString>
        <CharString name="Acircumflexdotbelow">
          80 callgsubr
          161 -1753 -43 callsubr
        </CharString>
        <CharString name="Acircumflexgrave">
          1149 1877 66 callgsubr
          -298 -151 rmoveto
          18 hlineto
          148 -146 rlineto
          253 hlineto
          -275 260 rlineto
          -270 hlineto
          -275 -260 rlineto
          253 hlineto
          -11 -1005 -105 callgsubr
        </CharString>
        <CharString name="Acircumflexhookabove">
          976 1769 rmoveto
          34 callgsubr
          -141 vlineto
          77 callgsubr
          -60 -24 hvcurveto
          -255 -141 rmoveto
          18 hlineto
          148 -146 rlineto
          253 hlineto
          -275 260 rlineto
          -270 hlineto
          -275 -260 rlineto
          253 hlineto
          -11 -1005 -105 callgsubr
        </CharString>
        <CharString name="Acircumflextilde">
          852 2171 rmoveto
          -77 -4 -34 -35 -49 -97 -22 125 -161 hhcurveto
          -137 -95 -100 -172 hvcurveto
          162 hlineto
          72 3 32 38 51 97 22 -126 161 hhcurveto
          136 96 101 174 hvcurveto
          -389 -445 rmoveto
          18 hlineto
          148 -146 rlineto
          253 hlineto
          -275 260 rlineto
          -270 hlineto
          -275 -260 rlineto
          253 hlineto
          -11 -1005 -105 callgsubr
        </CharString>
        <CharString name="Acyrillic">
          465 575 -105 callgsubr
        </CharString>
        <CharString name="Adblgrave">
          965 1602 rmoveto
          -253 318 rlineto
          184 callgsubr
          -192 hmoveto
          -253 318 rlineto
          184 callgsubr
          146 -1027 -105 callgsubr
        </CharString>
        <CharString name="Adieresis">
          864 1619 -87 callsubr
          63 -1044 -105 callgsubr
        </CharString>
        <CharString name="Adieresismacron">
          179 callsubr
          -138 -111 139 callsubr
          -455 -296 34 callsubr
          58 -987 -105 callgsubr
        </CharString>
        <CharString name="Adotaccent">
          633 1597 138 callsubr
          -168 -1022 -105 callgsubr
        </CharString>
        <CharString name="Adotbelow">
          633 -151 -43 callsubr
        </CharString>
        <CharString name="Adotmacron">
          179 callsubr
          -512 -253 rmoveto
          -83 66 -68 80 81 66 68 83 84 -66 67 -81 -80 -66 -67 -84 vhcurveto
          -23 -1141 -105 callgsubr
        </CharString>
        <CharString name="Agrave">
          774 1602 rmoveto
          -277 318 rlineto
          36 callgsubr
          -49 -1027 -105 callgsubr
        </CharString>
        <CharString name="Ahookabove">
          635 1561 rmoveto
          118 47 71 86 108 vvcurveto
          124 -99 80 -141 -62 -57 -13 -12 -34 vhcurveto
          -148 vlineto
          12 25 44 207 callsubr
          41 -31 -47 -44 -42 -39 -61 -23 hvcurveto
          -83 -1094 -105 callgsubr
        </CharString>
        <CharString name="Ainvertedbreve">
          1019 1591 rmoveto
          198 -151 180 callsubr
          193 hlineto
          104 2 77 68 114 hhcurveto
          114 77 -68 -104 2 hvcurveto
          -361 -1016 -105 callgsubr
        </CharString>
        <CharString name="Alphagreek">
          465 575 -105 callgsubr
        </CharString>
        <CharString name="Alphatonosgreek">
          375 86 callgsubr
          -253 hlineto
          -77 -375 rlineto
          188 hlineto
          320 -493 rmoveto
          120 578 rlineto
          13 hlineto
          118 -578 rlineto
          117 -575 rmoveto
          301 hlineto
          -366 -49 callgsubr
          rlineto
          -336 hlineto
          -364 -1443 rlineto
          277 hlineto
          73 353 rlineto
          343 hlineto
          endchar
        </CharString>
        <CharString name="Amacron">
          992 1841 rmoveto
          -718 -185 718 hlineto
          -527 -1081 -105 callgsubr
        </CharString>
        <CharString name="Aogonek">
          465 575 rmoveto
          152 585 rlineto
          13 hlineto
          150 -585 rlineto
          454 -575 rmoveto
          -433 -49 callgsubr
          rlineto
          -97 callgsubr
          89 -349 rlineto
          -97 -66 -41 -67 -94 vvcurveto
          -141 119 -97 172 56 57 8 13 30 vhcurveto
          157 vlineto
          -4 -11 -39 -4 -32 hhcurveto
          -84 -53 41 66 86 70 57 151 38 hvcurveto
          endchar
        </CharString>
        <CharString name="Aring">
          633 1840 rmoveto
          54 41 -39 -54 -54 -39 -40 -56 -54 -41 40 54 54 41 39 54 hvcurveto
          1 -291 rmoveto
          115 86 85 114 113 -86 83 -115 -117 -86 -83 -113 -114 87 -85 116 hvcurveto
          -169 -974 -105 callgsubr
        </CharString>
        <CharString name="Aringacute">
          872 2203 rmoveto
          -248 hlineto
          -101 -187 rlineto
          223 hlineto
          -113 -172 rmoveto
          54 41 -40 -54 -53 -39 -41 -56 -54 -41 40 54 54 41 40 54 hvcurveto
          1 -291 rmoveto
          115 86 84 115 112 -86 84 -115 -117 -86 -84 -112 -115 87 -84 116 hvcurveto
          -169 -978 -105 callgsubr
        </CharString>
        <CharString name="Aringbelow">
          633 -449 rmoveto
          -58 -44 45 57 57 44 45 58 58 44 -45 -57 -57 -44 -45 -58 hvcurveto
          344 vmoveto
          -131 -107 145 callgsubr
          107 -109 131 131 107 109 133 133 -107 215 callgsubr
          hvcurveto
          -168 680 rmoveto
          152 585 rlineto
          13 hlineto
          150 -585 rlineto
          21 868 rmoveto
          -336 hlineto
          112 callgsubr
          endchar
        </CharString>
        <CharString name="Atilde">
          857 1891 rmoveto
          -89 -4 -34 -37 -52 -88 -39 138 -164 hhcurveto
          -139 -99 -110 -191 hvcurveto
          172 hlineto
          90 3 33 39 53 96 36 -138 159 hhcurveto
          139 99 135 callsubr
          -563 -1316 -105 callgsubr
        </CharString>
        <CharString name="B">
          -94 callsubr
          endchar
        </CharString>
        <CharString name="Bdotaccent">
          -94 callsubr
          -18 1374 27 callsubr
        </CharString>
        <CharString name="Bdotbelow">
          -94 callsubr
          -18 -699 -57 callsubr
        </CharString>
        <CharString name="Becyrillic">
          431 675 rmoveto
          208 hlineto
          162 95 -81 -138 -139 -94 -80 -163 hvcurveto
          -208 hlineto
          662 vmoveto
          299 632 245 -917 -1443 562 vlineto
          286 192 182 272 265 -197 180 -291 hvcurveto
          endchar
        </CharString>
        <CharString name="Betagreek">
          -94 callsubr
          endchar
        </CharString>
        <CharString name="Blinebelow">
          -94 callsubr
          342 -638 -46 callsubr
          endchar
        </CharString>
        <CharString name="C">
          665 226 rmoveto
          17 callsubr
          295 14 callgsubr
          -288 hlineto
          18 callgsubr
          endchar
        </CharString>
        <CharString name="Cacute">
          665 226 rmoveto
          17 callsubr
          295 14 callgsubr
          -288 hlineto
          18 callgsubr
          -161 1376 rmoveto
          260 -44 callgsubr
          endchar
        </CharString>
        <CharString name="Ccaron">
          1053 1929 rmoveto
          48 callsubr
          256 hlineto
          -379 -725 rmoveto
          -92 callsubr
          -380 210 -223 357 328 204 200 327 vhcurveto
          -288 hlineto
          92 callsubr
          endchar
        </CharString>
        <CharString name="Ccedilla">
          910 498 -68 callgsubr
        </CharString>
        <CharString name="Ccedillaacute">
          1076 164 callgsubr
          -277 -318 rlineto
          260 hlineto
          146 -1104 -68 callgsubr
        </CharString>
        <CharString name="Ccircumflex">
          665 226 rmoveto
          17 callsubr
          295 14 callgsubr
          -288 hlineto
          18 callgsubr
          108 1711 24 callgsubr
        </CharString>
        <CharString name="Cdotaccent">
          665 226 rmoveto
          17 callsubr
          295 14 callgsubr
          -288 hlineto
          18 callgsubr
          -20 1371 rmoveto
          86 72 73 90 89 -72 73 -86 -87 -71 -73 -29 callsubr
          endchar
        </CharString>
        <CharString name="Checyrillic">
          1161 86 callgsubr
          -284 -605 hlineto
          -26 callsubr
          -580 284 hlineto
          endchar
        </CharString>
        <CharString name="Chigreek">
          -63 callsubr
          endchar
        </CharString>
        <CharString name="D">
          -72 callgsubr
          endchar
        </CharString>
        <CharString name="Dcaron">
          991 65 callsubr
          -153 -42 callsubr
          257 hlineto
          -306 -396 rmoveto
          140 hlineto
          246 118 -153 -318 -332 -114 -150 -250 hvcurveto
          -140 hlineto
          -284 1198 176 callsubr
          463 vlineto
          407 208 248 484 467 -211 244 -404 hvcurveto
          endchar
        </CharString>
        <CharString name="Dcircumflexbelow">
          -72 callgsubr
          34 -405 -11 callgsubr
        </CharString>
        <CharString name="Dcommaaccent">
          -72 callgsubr
          192 -749 -2 callsubr
        </CharString>
        <CharString name="Dcroat">
          428 231 rmoveto
          392 268 215 -268 375 125 vlineto
          251 117 -154 -332 -350 -109 -146 -252 hvcurveto
          -390 1212 rmoveto
          -605 -141 -215 141 -623 415 vlineto
          406 209 248 484 467 -211 244 -404 hvcurveto
          endchar
        </CharString>
        <CharString name="Ddotaccent">
          -72 callgsubr
          177 1352 27 callsubr
        </CharString>
        <CharString name="Ddotbelow">
          -72 callgsubr
          177 -721 -57 callsubr
        </CharString>
        <CharString name="Decyrillic">
          986 hmoveto
          -285 257 531 -136 1197 -855 vlineto
          -44 -816 -11 -224 -30 -95 -77 -62 rlinecurve
          -70 -531 257 285 hlineto
          225 1198 rmoveto
          321 -952 -433 24 hlineto
          46 65 25 101 9 167 rrcurveto
          endchar
        </CharString>
        <CharString name="Deltagreek">
          59 hmoveto
          1148 167 hlineto
          -406 1276 rlineto
          -336 hlineto
          -406 -1276 rlineto
          295 78 rmoveto
          17 vlineto
          263 905 rlineto
          13 hlineto
          260 -905 rlineto
          -17 vlineto
          endchar
        </CharString>
        <CharString name="Djecyrillic">
          719 -47 rmoveto
          -9 23 65 -8 50 hhcurveto
          254 141 171 322 291 -144 181 -262 -157 -82 -57 -18 -22 hvcurveto
          -14 372 339 245 -910 -245 313 -1198 258 583 hlineto
          22 22 69 49 113 hhcurveto
          133 71 -89 -151 -158 -60 -79 -112 -30 -33 4 8 -25 hvcurveto
          endchar
        </CharString>
        <CharString name="Dlinebelow">
          -72 callgsubr
          537 -660 -46 callsubr
          endchar
        </CharString>
        <CharString name="Dzecyrillic">
          95 404 -104 callgsubr
          endchar
        </CharString>
        <CharString name="Dzhecyrillic">
          499 -285 rmoveto
          267 285 419 -49 callgsubr
          -284 -1198 -536 1198 -284 -1443 418 hlineto
          endchar
        </CharString>
        <CharString name="E">
          1108 245 -56 callsubr
        </CharString>
        <CharString name="Eacute">
          1108 245 -101 callsubr
          -608 1602 74 callgsubr
        </CharString>
        <CharString name="Ebreve">
          1108 245 -101 callsubr
          -841 1927 rmoveto
          107 callsubr
          152 138 198 vhcurveto
          -194 hlineto
          -104 -2 -77 -68 -114 hhcurveto
          -114 -77 68 104 -2 hvcurveto
          endchar
        </CharString>
        <CharString name="Ecaron">
          1061 86 callsubr
          327 -1349 -56 callsubr
        </CharString>
        <CharString name="Ecedilla">
          1108 1198 rmoveto
          245 -910 -1443 378 vlineto
          -53 -120 rlineto
          -52 callsubr
          46 107 rlineto
          361 245 -625 371 588 227 -588 355 hlineto
          endchar
        </CharString>
        <CharString name="Ecedillabreve">
          846 15 callgsubr
          152 138 198 vhcurveto
          68 -729 rmoveto
          245 -910 -1443 378 vlineto
          -53 -120 rlineto
          -52 callsubr
          46 107 rlineto
          361 245 -625 371 588 227 -588 355 hlineto
          endchar
        </CharString>
        <CharString name="Ecircumflex">
          1108 245 -101 callsubr
          -327 1937 28 callsubr
          endchar
        </CharString>
        <CharString name="Ecircumflexacute">
          1108 245 -101 callsubr
          -221 1877 rmoveto
          227 hlineto
          212 287 rlineto
          -255 hlineto
          -283 -324 -72 callsubr
          endchar
        </CharString>
        <CharString name="Ecircumflexbelow">
          1108 245 -101 callsubr
          -599 -160 -88 callgsubr
          260 130 callsubr
        </CharString>
        <CharString name="Ecircumflexdotbelow">
          1108 245 -101 callsubr
          -327 1937 28 callsubr
          -408 -2072 rmoveto
          73 callgsubr
        </CharString>
        <CharString name="Ecircumflexgrave">
          1108 245 -101 callsubr
          61 1877 66 callgsubr
          -154 -37 -72 callsubr
          endchar
        </CharString>
        <CharString name="Ecircumflexhookabove">
          1108 245 -101 callsubr
          -310 2027 rmoveto
          77 callgsubr
          -59 -24 hvcurveto
          96 -98 rlineto
          34 callgsubr
          -10 -328 -72 callsubr
          endchar
        </CharString>
        <CharString name="Ecircumflextilde">
          1108 245 -101 callsubr
          -320 1840 -41 callgsubr
          52 96 22 -126 161 hhcurveto
          endchar
        </CharString>
        <CharString name="Ecyrillic">
          910 498 -9 callgsubr
        </CharString>
        <CharString name="Edblgrave">
          733 110 callsubr
          276 -318 rlineto
          226 hlineto
          542 -1357 -56 callsubr
        </CharString>
        <CharString name="Edieresis">
          1108 245 -101 callsubr
          -686 1619 rmoveto
          80 67 69 83 83 -67 -59 callsubr
        </CharString>
        <CharString name="Edotaccent">
          1108 245 -101 callsubr
          -448 1597 -23 callgsubr
        </CharString>
        <CharString name="Edotbelow">
          1108 245 -101 callsubr
          -455 -470 rmoveto
          73 callgsubr
        </CharString>
        <CharString name="Efcyrillic">
          501 -30 rmoveto
          264 169 hlineto
          322 12 173 201 372 vvcurveto
          370 -174 201 -321 12 vhcurveto
          166 -264 -166 vlineto
          -321 -12 -174 -201 -370 vvcurveto
          -372 173 -201 322 -12 vhcurveto
          -237 585 rmoveto
          232 88 132 154 10 vhcurveto
          -749 vlineto
          -154 9 -88 130 236 vvcurveto
          496 374 rmoveto
          154 -10 88 -132 -232 vvcurveto
          -236 -88 -130 -154 -9 vhcurveto
          endchar
        </CharString>
        <CharString name="Egrave">
          517 9 callgsubr
          260 hlineto
          314 -1357 -56 callsubr
        </CharString>
        <CharString name="Ehookabove">
          1108 245 -101 callsubr
          -656 1833 rmoveto
          12 25 43 207 callsubr
          42 -31 -47 -44 -43 -39 -61 -23 hvcurveto
          87 -108 rlineto
          118 47 71 86 108 vvcurveto
          124 -99 80 -140 -63 -57 -13 -12 -33 vhcurveto
          endchar
        </CharString>
        <CharString name="Einvertedbreve">
          460 1591 rmoveto
          104 2 77 68 114 hhcurveto
          114 77 -68 -104 2 hvcurveto
          194 hlineto
          198 -152 180 callsubr
          841 -1346 -56 callsubr
        </CharString>
        <CharString name="Elcyrillic">
          1157 86 callgsubr
          -895 hlineto
          40 callsubr
          278 hlineto
          endchar
        </CharString>
        <CharString name="Emacron">
          1108 245 -101 callsubr
          -95 1656 -46 callsubr
          endchar
        </CharString>
        <CharString name="Emacronacute">
          762 41 callgsubr
          -730 -167 vlineto
          820 -1365 -56 callsubr
        </CharString>
        <CharString name="Emacrongrave">
          1108 245 -101 callsubr
          -90 1610 187 callsubr
          493 80 callsubr
        </CharString>
        <CharString name="Emcyrillic">
          -75 callgsubr
          endchar
        </CharString>
        <CharString name="Encyrillic">
          -61 callgsubr
          endchar
        </CharString>
        <CharString name="Eogonek">
          846 hmoveto
          -17 vlineto
          -90 -58 -46 -76 -90 vvcurveto
          -131 106 -89 155 51 52 9 14 38 vhcurveto
          155 vlineto
          -4 -17 -30 -4 -22 hhcurveto
          -72 -50 43 62 76 59 67 112 42 hvcurveto
          16 6 rlineto
          240 -625 371 588 227 -588 355 625 245 -910 176 callgsubr
        </CharString>
        <CharString name="Epsilongreek">
          1108 245 -56 callsubr
        </CharString>
        <CharString name="Epsilontonosgreek">
          1166 245 rmoveto
          -429 371 392 227 -392 355 429 245 -701 -1443 701 hlineto
          -1143 156 callgsubr
        </CharString>
        <CharString name="Ercyrillic">
          -64 callsubr
          endchar
        </CharString>
        <CharString name="Ereversedcyrillic">
          316 942 -90 callgsubr
        </CharString>
        <CharString name="Escyrillic">
          665 226 rmoveto
          17 callsubr
          295 14 callgsubr
          -288 hlineto
          18 callgsubr
          endchar
        </CharString>
        <CharString name="Etagreek">
          -61 callgsubr
          endchar
        </CharString>
        <CharString name="Etatonosgreek">
          1202 hmoveto
          -49 callgsubr
          -246 -592 -277 592 -246 -1443 246 613 277 -613 vlineto
          -942 1068 78 callgsubr
          -254 hlineto
          endchar
        </CharString>
        <CharString name="Eth">
          405 245 rmoveto
          368 235 230 -235 355 140 vlineto
          246 118 -153 -318 -332 -114 -150 -250 hvcurveto
          -424 1198 rmoveto
          -600 -123 -230 123 -613 463 vlineto
          407 208 248 484 467 -211 244 -404 hvcurveto
          endchar
        </CharString>
        <CharString name="Etilde">
          1108 245 -101 callsubr
          -298 1593 rmoveto
          139 99 210 callgsubr
          -34 -37 -52 -87 -40 138 -164 hhcurveto
          -139 -99 -110 -191 hvcurveto
          172 hlineto
          90 3 33 39 53 96 36 -138 159 hhcurveto
          endchar
        </CharString>
        <CharString name="Etildebelow">
          1108 245 -101 callsubr
          -587 -321 rmoveto
          80 47 -143 148 190 callgsubr
          128 201 callgsubr
          -87 -1 -28 -49 -52 -80 -47 143 -148 26 callgsubr
          1 28 51 52 hhcurveto
          endchar
        </CharString>
        <CharString name="Euro">
          1212 -17 rmoveto
          249 vlineto
          -6 -37 -55 -3 -58 hhcurveto
          -245 -143 83 187 -75 hvcurveto
          509 151 -550 hlineto
          -3 22 -1 23 34 vvcurveto
          21 1 23 3 23 vhcurveto
          550 151 -514 hlineto
          193 75 146 86 251 hhcurveto
          52 49 -4 -7 44 hvcurveto
          245 vlineto
          10 -40 -66 6 -64 hhcurveto
          -422 -248 -175 -354 -78 hvcurveto
          -190 -151 169 hlineto
          -1 -19 -1 -22 -27 vvcurveto
          -29 1 -25 2 -24 vhcurveto
          -170 -151 192 hlineto
          -348 81 247 -171 419 hhcurveto
          62 55 3 6 53 hvcurveto
          endchar
        </CharString>
        <CharString name="F">
          48 callgsubr
          endchar
        </CharString>
        <CharString name="Fdotaccent">
          48 callgsubr
          431 1597 138 callsubr
          endchar
        </CharString>
        <CharString name="G">
          900 473 -98 callgsubr
          endchar
        </CharString>
        <CharString name="Gacute">
          900 473 -98 callgsubr
          -394 1049 74 callgsubr
        </CharString>
        <CharString name="Gammagreek">
          229 hmoveto
          283 hlineto
          1 1198 rlineto
          626 245 -910 hlineto
          endchar
        </CharString>
        <CharString name="Gbreve">
          900 473 -98 callgsubr
          -644 1374 rmoveto
          -198 152 -30 callsubr
        </CharString>
        <CharString name="Gcaron">
          1051 19 callgsubr
          129 -1121 -98 callgsubr
          endchar
        </CharString>
        <CharString name="Gcircumflex">
          900 473 -98 callgsubr
          -129 1384 91 callsubr
        </CharString>
        <CharString name="Gcommaaccent">
          900 473 -98 callgsubr
          -248 -1057 -2 callsubr
        </CharString>
        <CharString name="Gdotaccent">
          900 473 -98 callgsubr
          -257 1044 138 callsubr
          endchar
        </CharString>
        <CharString name="Gecyrillic">
          1226 1443 82 callsubr
        </CharString>
        <CharString name="Geupturncyrillic">
          985 1725 rmoveto
          -282 -932 -245 222 -952 -222 -246 739 246 -232 951 425 -222 254 750 vlineto
          endchar
        </CharString>
        <CharString name="Gjecyrillic">
          1088 177 callsubr
          -294 hlineto
          -277 -318 rlineto
          259 hlineto
          450 -159 82 callsubr
        </CharString>
        <CharString name="Gmacron">
          900 473 -98 callgsubr
          102 1103 -46 callsubr
          endchar
        </CharString>
        <CharString name="H">
          -61 callgsubr
          endchar
        </CharString>
        <CharString name="Hardsigncyrillic">
          571 722 rmoveto
          159 hlineto
          144 84 -89 -154 -154 -84 -88 -144 hvcurveto
          -159 hlineto
          719 vmoveto
          487 -558 -245 274 -1198 508 vlineto
          264 178 192 286 286 -185 192 -274 hvcurveto
          endchar
        </CharString>
        <CharString name="Hbar">
          420 849 rmoveto
          218 422 -218 vlineto
          -414 -239 rmoveto
          406 -610 285 1061 105 196 -105 186 -285 -186 -406 186 -284 -186 -102 -196 102 -1061 284 hlineto
          endchar
        </CharString>
        <CharString name="Hbrevebelow">
          -61 callgsubr
          -236 -289 59 callgsubr
          endchar
        </CharString>
        <CharString name="Hcaron">
          1041 -45 callsubr
          387 -1594 rmoveto
          -49 callgsubr
          -279 -588 -472 588 -279 -1443 279 610 472 -610 vlineto
          endchar
        </CharString>
        <CharString name="Hcedilla">
          869 86 callgsubr
          -588 -472 588 -279 -1443 108 vlineto
          -53 -120 rlineto
          -118 59 vlineto
          88 37 -16 -40 -38 -38 -19 -70 22 callsubr
          47 107 rlineto
          610 472 -610 279 -49 callgsubr
          vlineto
          endchar
        </CharString>
        <CharString name="Hcircumflex">
          -61 callgsubr
          -108 1937 -48 callgsubr
          endchar
        </CharString>
        <CharString name="Hdieresis">
          -61 callgsubr
          -467 1619 -102 callgsubr
          endchar
        </CharString>
        <CharString name="Hdotaccent">
          -61 callgsubr
          -236 1597 138 callsubr
          endchar
        </CharString>
        <CharString name="Hdotbelow">
          -61 callgsubr
          -236 24 callsubr
          endchar
        </CharString>
        <CharString name="I">
          1074 hmoveto
          7 callsubr
        </CharString>
        <CharString name="IAcyrillic">
          871 525 -68 callsubr
        </CharString>
        <CharString name="IJ">
          389 hmoveto
          14 callsubr
        </CharString>
        <CharString name="IJacute">
          171 1602 rmoveto
          260 -44 callgsubr
          340 -318 rmoveto
          259 -44 callgsubr
          -675 -1920 rmoveto
          14 callsubr
        </CharString>
        <CharString name="IUcyrillic">
          796 1234 -81 callgsubr
        </CharString>
        <CharString name="Iacute">
          1074 hmoveto
          -89 callsubr
          301 98 callgsubr
          endchar
        </CharString>
        <CharString name="Ibreve">
          1074 hmoveto
          -89 callsubr
          55 1927 rmoveto
          -198 151 -30 callsubr
        </CharString>
        <CharString name="Icaron">
          1041 -45 callsubr
          313 -1594 5 callgsubr
        </CharString>
        <CharString name="Icircumflex">
          1074 hmoveto
          -89 callsubr
          569 1937 -48 callgsubr
          endchar
        </CharString>
        <CharString name="Icyrillic">
          1074 hmoveto
          7 callsubr
        </CharString>
        <CharString name="Idblgrave">
          712 1920 rmoveto
          -250 173 callsubr
          184 callgsubr
          227 hlineto
          528 -1602 5 callgsubr
        </CharString>
        <CharString name="Idieresis">
          1074 hmoveto
          -89 callsubr
          210 1619 -102 callgsubr
          endchar
        </CharString>
        <CharString name="Idieresisacute">
          1074 hmoveto
          -89 callsubr
          309 1923 rmoveto
          229 hlineto
          206 241 rlineto
          -270 hlineto
          -260 -602 -27 callsubr
          13 callsubr
          78 hvcurveto
          endchar
        </CharString>
        <CharString name="Idotaccent">
          1074 hmoveto
          -89 callsubr
          441 1597 138 callsubr
          endchar
        </CharString>
        <CharString name="Idotbelow">
          1074 hmoveto
          -89 callsubr
          441 -476 -46 callgsubr
          endchar
        </CharString>
        <CharString name="Iecyrillic">
          1108 245 -56 callsubr
        </CharString>
        <CharString name="Igrave">
          497 9 callgsubr
          260 hlineto
          300 -1602 5 callgsubr
        </CharString>
        <CharString name="Ihookabove">
          1074 hmoveto
          -89 callsubr
          239 39 callsubr
        </CharString>
        <CharString name="Iicyrillic">
          125 1443 -51 callgsubr
        </CharString>
        <CharString name="Iinvertedbreve">
          440 -12 callgsubr
          -151 -138 -198 vhcurveto
          827 -1591 5 callgsubr
        </CharString>
        <CharString name="Iishortcyrillic">
          59 callsubr
          -345 -502 -51 callgsubr
        </CharString>
        <CharString name="Imacron">
          1074 hmoveto
          -89 callsubr
          800 134 callgsubr
          endchar
        </CharString>
        <CharString name="Iocyrillic">
          1108 245 -101 callsubr
          -686 1619 rmoveto
          80 67 69 83 83 -67 -59 callsubr
        </CharString>
        <CharString name="Iogonek">
          1074 1199 rmoveto
          244 -882 -244 299 -955 -299 -244 677 vlineto
          -105 -58 -59 -94 -109 vvcurveto
          -114 97 -86 130 46 52 10 14 43 vhcurveto
          164 vlineto
          -6 -17 -22 -3 -29 hhcurveto
          -64 -37 34 57 70 57 65 111 55 hvcurveto
          2 1 rlineto
          244 -299 955 vlineto
          endchar
        </CharString>
        <CharString name="Iotadieresisgreek">
          1074 hmoveto
          -89 callsubr
          210 1619 -102 callgsubr
          endchar
        </CharString>
        <CharString name="Iotagreek">
          1074 hmoveto
          7 callsubr
        </CharString>
        <CharString name="Iotatonosgreek">
          1184 hmoveto
          244 -237 955 237 244 -717 -244 235 -955 -235 -244 vlineto
          -397 1068 78 callgsubr
          -253 hlineto
          endchar
        </CharString>
        <CharString name="Iotatonosgreek.1">
          946 hmoveto
          -49 callgsubr
          -284 177 callgsubr
          -537 1068 78 callgsubr
          -254 hlineto
          endchar
        </CharString>
        <CharString name="Itilde">
          1074 hmoveto
          -89 callsubr
          598 27 callgsubr
        </CharString>
        <CharString name="Itildebelow">
          1074 hmoveto
          -89 callsubr
          309 -327 31 callsubr
        </CharString>
        <CharString name="J">
          -21 callsubr
          endchar
        </CharString>
        <CharString name="Jcircumflex">
          -21 callsubr
          202 1966 -48 callgsubr
          endchar
        </CharString>
        <CharString name="Jecyrillic">
          -21 callsubr
          endchar
        </CharString>
        <CharString name="K">
          428 hmoveto
          -71 callsubr
          endchar
        </CharString>
        <CharString name="Kacute">
          428 hmoveto
          -71 callsubr
          379 98 callgsubr
          endchar
        </CharString>
        <CharString name="Kacyrillic">
          403 86 callgsubr
          -283 -1443 283 597 46 hlineto
          469 -597 rlineto
          335 hlineto
          -572 737 537 706 106 callsubr
          -464 -617 rlineto
          -44 hlineto
          endchar
        </CharString>
        <CharString name="Kappagreek">
          428 hmoveto
          -71 callsubr
          endchar
        </CharString>
        <CharString name="Kcaron">
          1085 153 callgsubr
          -246 hlineto
          -153 123 callgsubr
          -377 -1594 rmoveto
          -71 callsubr
          endchar
        </CharString>
        <CharString name="Kcommaaccent">
          428 hmoveto
          -71 callsubr
          509 -504 53 callsubr
        </CharString>
        <CharString name="Kdotbelow">
          428 hmoveto
          -71 callsubr
          526 24 callsubr
          endchar
        </CharString>
        <CharString name="Kjecyrillic">
          506 98 callgsubr
          -379 -477 rmoveto
          -283 -1443 283 597 46 hlineto
          469 -597 rlineto
          335 hlineto
          -572 737 537 706 106 callsubr
          -464 -617 rlineto
          -44 hlineto
          endchar
        </CharString>
        <CharString name="Klinebelow">
          428 hmoveto
          -71 callsubr
          885 -415 -55 callgsubr
          endchar
        </CharString>
        <CharString name="L">
          -31 callsubr
          endchar
        </CharString>
        <CharString name="Lacute">
          -31 callsubr
          -913 1602 rmoveto
          260 -44 callgsubr
          endchar
        </CharString>
        <CharString name="Lambdagreek">
          39 hmoveto
          284 hlineto
          294 1146 rlineto
          13 hlineto
          290 -1146 rlineto
          307 hlineto
          -426 -49 callgsubr
          rlineto
          -336 hlineto
          endchar
        </CharString>
        <CharString name="Lcaron">
          780 86 callgsubr
          -500 185 vlineto
          45 500 rlineto
          134 -1192 rmoveto
          -632 1192 -281 -1443 913 hlineto
          endchar
        </CharString>
        <CharString name="Lcircumflexbelow">
          -31 callsubr
          -604 -160 -99 callsubr
          endchar
        </CharString>
        <CharString name="Lcommaaccent">
          -31 callsubr
          -445 -504 53 callsubr
        </CharString>
        <CharString name="Ldot">
          -31 callsubr
          -176 816 -46 callgsubr
          endchar
        </CharString>
        <CharString name="Ldotbelow">
          -31 callsubr
          -460 24 callsubr
          endchar
        </CharString>
        <CharString name="Ldotbelowmacron">
          -31 callsubr
          -460 24 callsubr
          47 2132 -46 callsubr
          endchar
        </CharString>
        <CharString name="Ljecyrillic">
          805 723 rmoveto
          63 hlineto
          105 61 -89 -154 -155 -61 -88 -105 hvcurveto
          -63 hlineto
          -395 981 rmoveto
          171 -1218 323 hlineto
          222 140 171 307 307 -140 171 -222 hvcurveto
          -84 487 -635 hlineto
          -26 -887 rlineto
          -244 -8 -26 -73 -78 hhcurveto
          -16 -20 4 2 -11 hvcurveto
          -245 vlineto
          -6 18 33 -7 33 hhcurveto
          212 81 151 412 12 hvcurveto
          endchar
        </CharString>
        <CharString name="Llinebelow">
          -31 callsubr
          -101 -415 -46 callsubr
          endchar
        </CharString>
        <CharString name="Lslash">
          512 251 rmoveto
          408 vlineto
          504 274 rlineto
          236 vlineto
          -504 -276 rlineto
          550 -281 -704 vlineto
          -145 -79 rlineto
          -233 vlineto
          145 79 rlineto
          -506 913 251 vlineto
          endchar
        </CharString>
        <CharString name="M">
          -75 callgsubr
          endchar
        </CharString>
        <CharString name="Macute">
          -75 callgsubr
          167 1602 rmoveto
          260 -44 callgsubr
          endchar
        </CharString>
        <CharString name="Mdotaccent">
          -75 callgsubr
          308 1597 138 callsubr
          endchar
        </CharString>
        <CharString name="Mdotbelow">
          -75 callgsubr
          308 24 callsubr
          endchar
        </CharString>
        <CharString name="Mugreek">
          -75 callgsubr
          endchar
        </CharString>
        <CharString name="N">
          373 hmoveto
          75 callsubr
        </CharString>
        <CharString name="Nacute">
          373 hmoveto
          -75 callsubr
          364 1602 9 callsubr
          endchar
        </CharString>
        <CharString name="Ncaron">
          1040 65 callsubr
          -153 -42 callsubr
          257 hlineto
          -387 -1594 72 callgsubr
        </CharString>
        <CharString name="Ncircumflexbelow">
          373 hmoveto
          -75 callsubr
          362 -160 rmoveto
          -268 -92 callgsubr
          260 130 callsubr
        </CharString>
        <CharString name="Ncommaaccent">
          373 hmoveto
          -75 callsubr
          482 -504 53 callsubr
        </CharString>
        <CharString name="Ndotaccent">
          373 hmoveto
          -75 callsubr
          505 1597 -23 callgsubr
        </CharString>
        <CharString name="Ndotbelow">
          373 hmoveto
          -75 callsubr
          505 -476 -57 callsubr
        </CharString>
        <CharString name="Ngrave">
          496 9 callgsubr
          259 hlineto
          -399 -1602 72 callgsubr
        </CharString>
        <CharString name="Njecyrillic">
          783 637 rmoveto
          68 hlineto
          105 58 -74 -137 -139 -59 -75 -104 hvcurveto
          -68 hlineto
          -493 -212 rmoveto
          630 268 -630 322 vlineto
          223 136 162 271 267 -136 164 -218 hvcurveto
          -94 579 -233 -579 -268 579 -231 -1443 hlineto
          endchar
        </CharString>
        <CharString name="Nlinebelow">
          373 hmoveto
          -75 callsubr
          865 -415 -46 callsubr
          endchar
        </CharString>
        <CharString name="Ntilde">
          373 hmoveto
          -75 callsubr
          662 1593 rmoveto
          138 100 210 callgsubr
          -35 -37 -51 -88 -39 138 -165 hhcurveto
          -139 -99 -110 -191 hvcurveto
          172 hlineto
          90 3 34 39 52 96 36 -138 160 hhcurveto
          endchar
        </CharString>
        <CharString name="Nugreek">
          373 hmoveto
          75 callsubr
        </CharString>
        <CharString name="NumberSignCyrillic">
          267 hmoveto
          947 19 vlineto
          260 -947 rlineto
          210 -49 callgsubr
          -192 -941 -18 hlineto
          -259 941 rlineto
          -211 -1443 hlineto
          962 1112 rmoveto
          95 76 77 95 95 -76 77 -95 -95 -76 -77 -95 -95 76 -77 95 hvcurveto
          167 -269 rmoveto
          124 -336 -124 vlineto
          endchar
        </CharString>
        <CharString name="O">
          -107 callsubr
          endchar
        </CharString>
        <CharString name="OE">
          301 801 rmoveto
          261 51 106 128 133 53 -106 -270 vhcurveto
          -141 vlineto
          -270 -53 -106 -133 -128 -51 106 261 vhcurveto
          375 -437 rmoveto
          15 -205 571 263 -349 341 313 247 -313 328 349 264 -571 -212 -15 hlineto
          170 -41 -85 76 -160 hhcurveto
          -242 -111 -200 -445 hvcurveto
          -221 vlineto
          -444 111 -201 242 163 84 73 166 39 vhcurveto
          endchar
        </CharString>
        <CharString name="Oacute">
          -107 callsubr
          -140 1379 rmoveto
          259 -44 callgsubr
          endchar
        </CharString>
        <CharString name="Obreve">
          -107 callsubr
          -386 1704 rmoveto
          -198 151 -30 callsubr
        </CharString>
        <CharString name="Ocaron">
          1041 -45 callsubr
          -394 -765 -96 callsubr
        </CharString>
        <CharString name="Ocircumflex">
          -107 callsubr
          128 1714 -48 callgsubr
          endchar
        </CharString>
        <CharString name="Ocircumflexacute">
          -107 callsubr
          234 1654 rmoveto
          227 hlineto
          212 287 rlineto
          -255 hlineto
          -283 -324 -72 callsubr
          endchar
        </CharString>
        <CharString name="Ocircumflexdotbelow">
          -107 callsubr
          128 1714 -48 callgsubr
          -408 -2078 rmoveto
          73 callgsubr
        </CharString>
        <CharString name="Ocircumflexgrave">
          -107 callsubr
          516 1654 66 callgsubr
          -154 -37 -72 callsubr
          endchar
        </CharString>
        <CharString name="Ocircumflexhookabove">
          -107 callsubr
          145 1804 rmoveto
          77 callgsubr
          -60 -24 hvcurveto
          97 -98 rlineto
          34 callgsubr
          -10 -328 -72 callsubr
          endchar
        </CharString>
        <CharString name="Ocircumflextilde">
          -107 callsubr
          135 1617 -41 callgsubr
          51 97 22 -126 161 hhcurveto
          endchar
        </CharString>
        <CharString name="Ocyrillic">
          -107 callsubr
          endchar
        </CharString>
        <CharString name="Odblgrave">
          712 1920 rmoveto
          -250 173 callsubr
          184 callgsubr
          227 hlineto
          -179 -773 -96 callsubr
        </CharString>
        <CharString name="Odieresis">
          -107 callsubr
          -231 1396 -102 callgsubr
          endchar
        </CharString>
        <CharString name="Odieresismacron">
          862 1858 rmoveto
          -78 -65 -66 -82 -82 65 -66 78 -31 callgsubr
          hvcurveto
          -593 111 141 callgsubr
          138 -278 rmoveto
          -79 13 callsubr
          79 -31 callgsubr
          hvcurveto
          -40 -1029 -96 callsubr
        </CharString>
        <CharString name="Odotaccent">
          -107 callsubr
          1374 vmoveto
          -65 callsubr
          endchar
        </CharString>
        <CharString name="Odotaccentmacron">
          71 callgsubr
          98 -1307 -96 callsubr
        </CharString>
        <CharString name="Odotbelow">
          -107 callsubr
          -699 64 callgsubr
        </CharString>
        <CharString name="Ograve">
          497 9 callgsubr
          260 hlineto
          -407 -773 -96 callsubr
        </CharString>
        <CharString name="Ohookabove">
          -107 callsubr
          -202 1610 -66 callgsubr
          endchar
        </CharString>
        <CharString name="Ohorn">
          633 -29 -81 callsubr
        </CharString>
        <CharString name="Ohornacute">
          433 98 callgsubr
          -76 -1949 -81 callsubr
        </CharString>
        <CharString name="Ohorndotbelow">
          633 -29 -80 callgsubr
          -699 64 callgsubr
        </CharString>
        <CharString name="Ohorngrave">
          367 829 rmoveto
          259 91 132 175 175 91 -132 -259 vhcurveto
          -215 vlineto
          -259 -91 -132 -175 -175 -91 132 259 vhcurveto
          821 218 rmoveto
          188 -40 127 -77 79 vhcurveto
          16 66 vlineto
          137 76 74 134 hvcurveto
          227 -216 -161 vlineto
          -64 -36 -29 -83 vhcurveto
          -167 -52 49 -163 hhcurveto
          -347 -208 -240 -400 hvcurveto
          -221 vlineto
          -400 208 -240 347 347 208 240 400 vhcurveto
          -671 1309 29 callgsubr
          259 hlineto
          endchar
        </CharString>
        <CharString name="Ohornhookabove">
          431 1833 -66 callgsubr
          202 -2010 -81 callsubr
        </CharString>
        <CharString name="Ohorntilde">
          -21 callgsubr
          -157 -1622 -81 callsubr
        </CharString>
        <CharString name="Ohungarumlaut">
          -107 callsubr
          61 1379 125 callsubr
          -250 hlineto
          -671 -318 125 callsubr
          -251 hlineto
          endchar
        </CharString>
        <CharString name="Oinvertedbreve">
          440 -12 callgsubr
          -151 -138 -198 vhcurveto
          120 -762 -96 callsubr
        </CharString>
        <CharString name="Omacron">
          -107 callsubr
          359 1433 -55 callgsubr
          endchar
        </CharString>
        <CharString name="Omacronacute">
          742 41 callgsubr
          -731 -167 vlineto
          100 -781 -96 callsubr
        </CharString>
        <CharString name="Omacrongrave">
          -107 callsubr
          365 1387 rmoveto
          167 -731 -167 vlineto
          494 80 callsubr
        </CharString>
        <CharString name="Omegagreek">
          633 1472 rmoveto
          -377 -214 -239 -422 -249 99 -190 188 -118 hvcurveto
          -17 -291 -237 534 302 vlineto
          -183 97 -72 138 251 vvcurveto
          287 103 145 213 213 102 -145 -287 -251 -71 -138 -183 -97 vhcurveto
          -302 534 237 -291 17 vlineto
          188 118 99 190 249 vvcurveto
          422 -214 239 -377 vhcurveto
          endchar
        </CharString>
        <CharString name="Omegatonosgreek">
          763 1472 rmoveto
          -308 -166 -227 -423 -294 69 -208 162 -90 hvcurveto
          -17 -234 -213 419 345 vlineto
          -129 88 -46 102 282 vvcurveto
          278 73 125 160 160 74 -125 -278 -280 -47 -104 -129 -88 vhcurveto
          -345 419 213 -233 17 vlineto
          162 91 69 208 293 vvcurveto
          423 -166 227 -309 vhcurveto
          -762 -404 78 callgsubr
          -253 hlineto
          endchar
        </CharString>
        <CharString name="Omicrongreek">
          -107 callsubr
          endchar
        </CharString>
        <CharString name="Omicrontonosgreek">
          1196 611 rmoveto
          221 vlineto
          430 -143 210 -287 -288 -142 -210 -430 vhcurveto
          -221 vlineto
          -430 142 -210 288 287 143 210 430 vhcurveto
          -430 -388 rmoveto
          -125 -62 117 246 hvcurveto
          271 vlineto
          246 62 117 125 124 62 -117 -246 vhcurveto
          -271 vlineto
          -246 -62 -117 -124 vhcurveto
          -731 845 78 callgsubr
          -254 hlineto
          endchar
        </CharString>
        <CharString name="Oogonek">
          633 223 -39 callsubr
        </CharString>
        <CharString name="Oogonekmacron">
          992 134 callgsubr
          359 -1433 -39 callsubr
        </CharString>
        <CharString name="Oslash">
          899 614 -38 callsubr
        </CharString>
        <CharString name="Oslashacute">
          976 97 callsubr
          235 -988 -38 callsubr
        </CharString>
        <CharString name="Otilde">
          -107 callsubr
          157 1370 -60 callsubr
        </CharString>
        <CharString name="Otildeacute">
          -107 callsubr
          -107 1713 rmoveto
          230 hlineto
          161 239 191 callgsubr
          125 -618 -69 callsubr
          endchar
        </CharString>
        <CharString name="Otildedieresis">
          -107 callsubr
          152 1334 -69 callsubr
          -380 346 rmoveto
          72 58 59 74 74 -58 60 -72 -71 -58 -60 -74 -74 58 -59 71 hvcurveto
          456 hmoveto
          71 58 59 74 74 -58 60 -71 -72 -58 -60 -74 -74 58 -59 72 hvcurveto
          endchar
        </CharString>
        <CharString name="Otildemacron">
          -107 callsubr
          365 1758 187 callsubr
          517 -424 -69 callsubr
          endchar
        </CharString>
        <CharString name="P">
          -64 callsubr
          endchar
        </CharString>
        <CharString name="Pacute">
          -64 callsubr
          9 910 74 callgsubr
        </CharString>
        <CharString name="Pdotaccent">
          -64 callsubr
          149 905 27 callsubr
        </CharString>
        <CharString name="Pecyrillic">
          1178 86 callgsubr
          -1090 -1443 284 1197 522 -1197 284 hlineto
          endchar
        </CharString>
        <CharString name="Phigreek">
          510 -110 rmoveto
          246 171 hlineto
          301 17 166 233 403 vvcurveto
          404 -166 232 -301 18 vhcurveto
          170 -246 -170 vlineto
          -301 -18 -166 -232 -404 vvcurveto
          -403 166 -233 301 -17 vhcurveto
          9 206 rmoveto
          -162 19 -81 147 281 vvcurveto
          282 81 147 162 19 vhcurveto
          228 -895 rmoveto
          895 vlineto
          162 -19 81 -150 -279 vvcurveto
          -281 -81 -147 -162 -19 vhcurveto
          endchar
        </CharString>
        <CharString name="Pigreek">
          124 hmoveto
          284 1198 450 -1198 284 -49 callgsubr
          -1018 hlineto
          endchar
        </CharString>
        <CharString name="Psigreek">
          499 hmoveto
          269 301 hlineto
          318 28 107 126 394 vvcurveto
          594 -237 -570 vlineto
          -270 -45 -70 -159 -12 vhcurveto
          922 -238 -922 vlineto
          -159 12 -45 70 270 vvcurveto
          570 -237 -594 vlineto
          -394 106 -125 320 -29 vhcurveto
          endchar
        </CharString>
        <CharString name="Q">
          812 461 rmoveto
          -269 hlineto
          147 -249 rlineto
          -3 -18 -19 -2 -20 hhcurveto
          -178 -96 135 268 hvcurveto
          207 vlineto
          268 96 135 178 178 96 -135 -268 vhcurveto
          -207 vlineto
          -100 -13 -81 -26 -62 vhcurveto
          320 465 rmoveto
          401 -209 239 -346 -346 -209 -239 -401 vhcurveto
          -221 vlineto
          -401 209 -239 346 67 62 9 17 56 vhcurveto
          92 -155 rlineto
          269 hlineto
          -162 274 rlineto
          110 109 61 170 216 vvcurveto
          endchar
        </CharString>
        <CharString name="R">
          -88 callsubr
          endchar
        </CharString>
        <CharString name="Racute">
          -88 callsubr
          5 1071 rmoveto
          260 -44 callgsubr
          endchar
        </CharString>
        <CharString name="Rcaron">
          980 65 callsubr
          -153 194 rlineto
          -247 hlineto
          281 -335 rlineto
          256 hlineto
          -68 -1063 -35 callgsubr
        </CharString>
        <CharString name="Rcommaaccent">
          -88 callsubr
          234 -1034 155 callsubr
        </CharString>
        <CharString name="Rdblgrave">
          651 177 callsubr
          184 callgsubr
          226 hlineto
          -671 318 20 callgsubr
          147 -1071 -35 callgsubr
        </CharString>
        <CharString name="Rdotaccent">
          -88 callsubr
          146 1066 -23 callgsubr
        </CharString>
        <CharString name="Rdotbelow">
          -88 callsubr
          219 -1006 -46 callgsubr
          endchar
        </CharString>
        <CharString name="Rdotbelowmacron">
          -88 callsubr
          219 -1006 -46 callgsubr
          286 2131 -46 callsubr
          endchar
        </CharString>
        <CharString name="Rhogreek">
          -64 callsubr
          endchar
        </CharString>
        <CharString name="Rinvertedbreve">
          379 1591 rmoveto
          104 2 77 68 114 hhcurveto
          114 76 -68 -104 2 hvcurveto
          194 hlineto
          209 callsubr
          -152 169 callgsubr
          447 -1060 -35 callgsubr
        </CharString>
        <CharString name="Rlinebelow">
          -88 callsubr
          578 -945 40 callgsubr
        </CharString>
        <CharString name="S">
          95 404 -104 callgsubr
          endchar
        </CharString>
        <CharString name="Sacute">
          95 404 -104 callgsubr
          136 1198 rmoveto
          259 -44 callgsubr
          endchar
        </CharString>
        <CharString name="Sacutedotaccent">
          95 404 -104 callgsubr
          247 1198 rmoveto
          260 -44 callgsubr
          -463 -295 -57 callsubr
        </CharString>
        <CharString name="Scaron">
          1047 86 callsubr
          -672 -1190 -104 callgsubr
          endchar
        </CharString>
        <CharString name="Scarondotaccent">
          95 404 -104 callgsubr
          276 1505 rmoveto
          88 62 62 83 83 -62 61 -88 -87 -63 -61 -83 -83 63 -62 87 63 callsubr
        </CharString>
        <CharString name="Scedilla">
          629 870 rmoveto
          -156 34 -64 56 102 vvcurveto
          108 89 67 143 141 91 -73 -119 11 170 callgsubr
          258 -9 -203 169 -302 hhcurveto
          -312 -199 -171 -269 -214 128 -138 261 -59 hvcurveto
          150 -35 rlineto
          167 -37 64 -52 -98 vvcurveto
          -117 -99 -75 -156 -164 -102 72 125 -13 vhcurveto
          -268 hlineto
          9 -245 170 -158 277 -26 -42 -95 rcurveline
          -52 callsubr
          35 82 rlineto
          286 27 170 166 260 vvcurveto
          221 -122 125 -279 62 vhcurveto
          endchar
        </CharString>
        <CharString name="Scircumflex">
          95 404 -104 callgsubr
          404 1533 28 callsubr
          endchar
        </CharString>
        <CharString name="Scommaaccent">
          95 404 -104 callgsubr
          291 -908 -2 callsubr
        </CharString>
        <CharString name="Sdotaccent">
          95 404 -104 callgsubr
          276 1193 138 callsubr
          endchar
        </CharString>
        <CharString name="Sdotbelow">
          95 404 -104 callgsubr
          276 -874 rmoveto
          73 callgsubr
        </CharString>
        <CharString name="Sdotbelowdotaccent">
          95 404 -104 callgsubr
          276 -880 rmoveto
          -98 callsubr
          2073 vmoveto
          -65 callsubr
          endchar
        </CharString>
        <CharString name="Shacyrillic">
          1194 hmoveto
          -49 callgsubr
          -221 -1212 -230 1212 -220 -1212 -230 1212 -221 176 callgsubr
        </CharString>
        <CharString name="Shchacyrillic">
          1049 -285 rmoveto
          217 516 -119 1212 -220 -1219 -223 1219 -220 -1219 -223 1219 -220 -1443 1008 hlineto
          endchar
        </CharString>
        <CharString name="Sigmagreek">
          123 hmoveto
          1003 245 -646 17 hlineto
          299 455 rlineto
          34 vlineto
          -277 430 rlineto
          17 605 245 -964 -214 vlineto
          335 -504 -355 -543 rlineto
          endchar
        </CharString>
        <CharString name="Softsigncyrillic">
          431 723 rmoveto
          205 hlineto
          167 95 -88 -155 -156 -95 -87 -167 hvcurveto
          -205 hlineto
          279 -237 rmoveto
          286 192 191 287 287 -198 191 -295 hvcurveto
          -264 487 -285 -1443 hlineto
          endchar
        </CharString>
        <CharString name="T">
          -15 callgsubr
          endchar
        </CharString>
        <CharString name="Taugreek">
          -15 callgsubr
          endchar
        </CharString>
        <CharString name="Tbar">
          1188 1198 rmoveto
          245 -1110 -245 413 -399 -283 -207 283 -592 284 592 283 207 -283 399 vlineto
          endchar
        </CharString>
        <CharString name="Tcaron">
          1041 -45 callsubr
          14 -1594 rmoveto
          1198 413 245 -1110 -245 413 -1198 vlineto
          endchar
        </CharString>
        <CharString name="Tcedilla">
          -42 callgsubr
          65 vlineto
          -53 -120 rlineto
          -118 59 vlineto
          51 callgsubr
          endchar
        </CharString>
        <CharString name="Tcircumflexbelow">
          -15 callgsubr
          -2 -160 -99 callsubr
          endchar
        </CharString>
        <CharString name="Tcommaaccent">
          -15 callgsubr
          144 -504 -2 callsubr
        </CharString>
        <CharString name="Tdotaccent">
          -15 callgsubr
          142 1597 138 callsubr
          endchar
        </CharString>
        <CharString name="Tdotbelow">
          -15 callgsubr
          142 24 callsubr
          endchar
        </CharString>
        <CharString name="Tecyrillic">
          -15 callgsubr
          endchar
        </CharString>
        <CharString name="Thetagreek">
          633 223 rmoveto
          -188 -108 141 250 hvcurveto
          215 vlineto
          250 108 141 188 188 108 -141 -250 vhcurveto
          -215 vlineto
          -250 -108 -141 -188 vhcurveto
          562 388 rmoveto
          221 vlineto
          402 -210 238 -352 -352 -210 -238 -402 vhcurveto
          -221 vlineto
          -402 210 -238 352 352 210 238 402 vhcurveto
          -754 -14 rmoveto
          384 241 -384 hlineto
          endchar
        </CharString>
        <CharString name="Thorn">
          169 205 callsubr
          301 282 237 vlineto
          288 194 191 275 277 -186 189 -280 hvcurveto
          -253 229 hlineto
          -485 vmoveto
          170 hlineto
          161 82 -71 -140 -139 -82 -72 -161 hvcurveto
          -170 hlineto
          endchar
        </CharString>
        <CharString name="Tlinebelow">
          -15 callgsubr
          501 -415 -55 callgsubr
          endchar
        </CharString>
        <CharString name="Tsecyrillic">
          1265 245 rmoveto
          -142 1198 -284 -1198 -462 1198 -284 -1443 916 -285 256 hlineto
          endchar
        </CharString>
        <CharString name="Tshecyrillic">
          938 hmoveto
          271 475 hlineto
          275 -120 151 -252 -165 -85 -57 -18 -22 vhcurveto
          -14 372 323 245 -874 -245 280 -1198 271 574 hlineto
          22 21 67 51 111 hhcurveto
          130 58 -80 -138 hvcurveto
          endchar
        </CharString>
        <CharString name="U">
          -102 callsubr
          endchar
        </CharString>
        <CharString name="Uacute">
          -102 callsubr
          -141 1375 rmoveto
          259 -44 callgsubr
          endchar
        </CharString>
        <CharString name="Ubreve">
          -102 callsubr
          -388 1700 rmoveto
          -198 152 -30 callsubr
        </CharString>
        <CharString name="Ucaron">
          1040 19 callgsubr
          -379 -151 -63 callgsubr
        </CharString>
        <CharString name="Ucircumflex">
          -102 callsubr
          127 1710 91 callsubr
        </CharString>
        <CharString name="Ucircumflexbelow">
          -102 callsubr
          -145 -387 -99 callsubr
          endchar
        </CharString>
        <CharString name="Ucyrillic">
          1229 1443 -79 callgsubr
          endchar
        </CharString>
        <CharString name="Udblgrave">
          711 1920 rmoveto
          -250 173 callsubr
          184 callgsubr
          227 hlineto
          -164 -159 -63 callgsubr
        </CharString>
        <CharString name="Udieresis">
          -102 callsubr
          -232 1392 53 callgsubr
        </CharString>
        <CharString name="Udieresisacute">
          -102 callsubr
          -133 1696 rmoveto
          229 hlineto
          206 241 rlineto
          -270 hlineto
          -260 -602 -27 callsubr
          -65 -66 -82 -82 65 217 callgsubr
        </CharString>
        <CharString name="Udieresisbelow">
          -102 callsubr
          -232 -692 53 callgsubr
        </CharString>
        <CharString name="Udieresiscaron">
          -102 callsubr
          125 1674 rmoveto
          274 296 rlineto
          -244 hlineto
          -147 -168 rlineto
          -18 hlineto
          -147 168 rlineto
          -244 hlineto
          274 -296 rlineto
          -101 -339 -27 callsubr
          -65 -66 -82 -82 65 217 callgsubr
        </CharString>
        <CharString name="Udieresisgrave">
          406 1562 34 callsubr
          455 hmoveto
          78 65 66 82 82 -65 66 -78 103 callsubr
          -385 -480 -63 callgsubr
        </CharString>
        <CharString name="Udieresismacron">
          861 1858 162 callsubr
          78 65 66 82 82 -65 66 -78 hvcurveto
          -593 111 rmoveto
          730 167 -730 111 callgsubr
          -25 -415 -63 callgsubr
        </CharString>
        <CharString name="Udotbelow">
          -102 callsubr
          -1 -703 rmoveto
          73 callgsubr
        </CharString>
        <CharString name="Ugrave">
          496 9 callgsubr
          260 hlineto
          -392 -159 -63 callgsubr
        </CharString>
        <CharString name="Uhookabove">
          -102 callsubr
          -203 1606 -66 callgsubr
          endchar
        </CharString>
        <CharString name="Uhorn">
          620 -29 -69 callgsubr
        </CharString>
        <CharString name="Uhornacute">
          419 98 callgsubr
          -75 -1949 -69 callgsubr
        </CharString>
        <CharString name="Uhorndotbelow">
          50 callsubr
          -13 447 -69 callgsubr
        </CharString>
        <CharString name="Uhorngrave">
          1137 1252 rmoveto
          28 hlineto
          140 82 78 133 hvcurveto
          241 -216 -183 vlineto
          -49 -33 -29 -57 vhcurveto
          -228 -937 hlineto
          -181 -83 -98 -150 -150 -83 98 181 vhcurveto
          937 -284 -932 vlineto
          -347 186 -193 331 332 185 193 347 vhcurveto
          -647 1409 29 callgsubr
          260 hlineto
          endchar
        </CharString>
        <CharString name="Uhornhookabove">
          431 1833 -66 callgsubr
          189 -2010 -69 callgsubr
        </CharString>
        <CharString name="Uhorntilde">
          -21 callgsubr
          -170 -1622 -69 callgsubr
        </CharString>
        <CharString name="Uhungarumlaut">
          -102 callsubr
          60 1375 125 callsubr
          -250 hlineto
          -671 -318 rmoveto
          227 hlineto
          275 318 rlineto
          -250 hlineto
          endchar
        </CharString>
        <CharString name="Uinvertedbreve">
          439 -12 callgsubr
          -152 169 callgsubr
          136 -148 -63 callgsubr
        </CharString>
        <CharString name="Umacron">
          -102 callsubr
          358 1429 -46 callsubr
          endchar
        </CharString>
        <CharString name="Umacrondieresis">
          -102 callsubr
          -228 1661 45 callgsubr
          -79 13 callsubr
          79 hvcurveto
          -138 -278 141 callgsubr
          593 111 rmoveto
          100 callgsubr
          -65 -66 -82 -82 65 217 callgsubr
        </CharString>
        <CharString name="Uogonek">
          867 -454 rmoveto
          53 47 7 14 34 hvcurveto
          157 vlineto
          -5 -22 -21 -3 -27 hhcurveto
          -75 -47 44 74 70 45 62 106 77 hvcurveto
          144 107 66 144 217 vvcurveto
          932 -285 -915 vlineto
          -194 -90 -107 -162 -162 -90 107 194 vhcurveto
          915 -285 -932 vlineto
          -334 194 -206 314 42 55 9 12 32 vhcurveto
          -17 vlineto
          -93 -66 -41 -63 -86 vvcurveto
          -126 111 -88 157 vhcurveto
          endchar
        </CharString>
        <CharString name="Upsilondieresisgreek">
          -89 callgsubr
          -89 1619 -102 callgsubr
          endchar
        </CharString>
        <CharString name="Upsilongreek">
          -89 callgsubr
          endchar
        </CharString>
        <CharString name="Upsilontonosgreek">
          954 hmoveto
          519 vlineto
          312 924 rlineto
          -269 hlineto
          -164 -615 rlineto
          -17 hlineto
          -164 615 rlineto
          -269 hlineto
          313 -924 rlineto
          -519 vlineto
          -678 156 callgsubr
        </CharString>
        <CharString name="Uring">
          -102 callsubr
          1322 vmoveto
          115 85 85 114 113 -85 12 callsubr
          -40 -40 -55 hvcurveto
          endchar
        </CharString>
        <CharString name="Ushortcyrillic">
          1229 1443 -79 callgsubr
          -547 1536 68 callsubr
        </CharString>
        <CharString name="Utilde">
          -102 callsubr
          156 1366 -60 callsubr
        </CharString>
        <CharString name="Utildeacute">
          -102 callsubr
          -108 1709 rmoveto
          230 hlineto
          161 239 191 callgsubr
          125 -618 -69 callsubr
          endchar
        </CharString>
        <CharString name="Utildebelow">
          -102 callsubr
          -133 -554 rmoveto
          80 47 -143 148 hhcurveto
          154 101 128 192 hvcurveto
          -184 hlineto
          -87 -1 -28 -48 -53 -79 -48 142 -147 26 callgsubr
          29 51 52 vhcurveto
          endchar
        </CharString>
        <CharString name="V">
          10 callsubr
          endchar
        </CharString>
        <CharString name="Vdotbelow">
          10 callsubr
          -317 -1919 rmoveto
          73 callgsubr
        </CharString>
        <CharString name="Vecyrillic">
          -94 callsubr
          endchar
        </CharString>
        <CharString name="Vtilde">
          10 callsubr
          -160 150 -60 callsubr
        </CharString>
        <CharString name="W">
          641 850 -93 callsubr
          endchar
        </CharString>
        <CharString name="Wacute">
          641 850 -93 callsubr
          -132 752 rmoveto
          260 -44 callgsubr
          endchar
        </CharString>
        <CharString name="Wcircumflex">
          641 850 -93 callsubr
          137 1087 24 callgsubr
        </CharString>
        <CharString name="Wdieresis">
          641 850 -93 callsubr
          -222 769 -60 callgsubr
        </CharString>
        <CharString name="Wdotaccent">
          641 850 -93 callsubr
          9 747 -23 callgsubr
        </CharString>
        <CharString name="Wdotbelow">
          641 850 -93 callsubr
          8 -1326 rmoveto
          73 callgsubr
        </CharString>
        <CharString name="Wgrave">
          498 9 callgsubr
          259 hlineto
          -133 -752 -93 callsubr
          endchar
        </CharString>
        <CharString name="X">
          -63 callsubr
          endchar
        </CharString>
        <CharString name="Xacyrillic">
          -63 callsubr
          endchar
        </CharString>
        <CharString name="Xdieresis">
          -63 callsubr
          -57 892 -102 callgsubr
          endchar
        </CharString>
        <CharString name="Xdotaccent">
          -63 callsubr
          174 870 138 callsubr
          endchar
        </CharString>
        <CharString name="Xigreek">
          144 hmoveto
          978 253 -978 hlineto
          84 345 rmoveto
          810 250 -810 hlineto
          -84 342 rmoveto
          978 253 -978 hlineto
          endchar
        </CharString>
        <CharString name="Y">
          -89 callgsubr
          endchar
        </CharString>
        <CharString name="Yacute">
          -89 callgsubr
          -5 1602 rmoveto
          260 -44 callgsubr
          endchar
        </CharString>
        <CharString name="Ycircumflex">
          -89 callgsubr
          270 1937 -48 callgsubr
          endchar
        </CharString>
        <CharString name="Ydieresis">
          -89 callgsubr
          -89 1619 -102 callgsubr
          endchar
        </CharString>
        <CharString name="Ydotaccent">
          -89 callgsubr
          142 1597 138 callsubr
          endchar
        </CharString>
        <CharString name="Ydotbelow">
          -89 callgsubr
          142 24 callsubr
          endchar
        </CharString>
        <CharString name="Yericyrillic">
          305 723 -58 callsubr
        </CharString>
        <CharString name="Ygrave">
          503 177 callsubr
          -294 90 callsubr
          259 hlineto
          -5 -1602 rmoveto
          533 vlineto
          463 910 106 callsubr
          -289 -615 rlineto
          -18 hlineto
          -289 615 106 callsubr
          463 -910 rlineto
          -533 vlineto
          endchar
        </CharString>
        <CharString name="Yhookabove">
          -89 callgsubr
          -60 39 callsubr
        </CharString>
        <CharString name="Yicyrillic">
          1074 hmoveto
          -89 callsubr
          210 1619 -102 callgsubr
          endchar
        </CharString>
        <CharString name="Ymacron">
          -89 callgsubr
          501 134 callgsubr
          endchar
        </CharString>
        <CharString name="Ytilde">
          -89 callgsubr
          299 27 callgsubr
        </CharString>
        <CharString name="Z">
          133 hmoveto
          -59 callgsubr
          endchar
        </CharString>
        <CharString name="Zacute">
          133 hmoveto
          -59 callgsubr
          371 1408 rmoveto
          260 -44 callgsubr
          endchar
        </CharString>
        <CharString name="Zcaron">
          1053 1929 rmoveto
          48 callsubr
          256 hlineto
          -640 -1594 rmoveto
          -59 callgsubr
          endchar
        </CharString>
        <CharString name="Zcircumflex">
          133 hmoveto
          -59 callgsubr
          640 1743 24 callgsubr
        </CharString>
        <CharString name="Zdotaccent">
          133 hmoveto
          -59 callgsubr
          512 1403 -23 callgsubr
        </CharString>
        <CharString name="Zdotbelow">
          133 hmoveto
          -59 callgsubr
          500 -670 rmoveto
          73 callgsubr
        </CharString>
        <CharString name="Zecyrillic">
          442 619 -64 callgsubr
          endchar
        </CharString>
        <CharString name="Zetagreek">
          133 hmoveto
          -59 callgsubr
          endchar
        </CharString>
        <CharString name="Zhecyrillic">
          -41 callsubr
          endchar
        </CharString>
        <CharString name="Zlinebelow">
          133 hmoveto
          -59 callgsubr
          859 -609 -55 callgsubr
          endchar
        </CharString>
        <CharString name="a">
          -107 callgsubr
          endchar
        </CharString>
        <CharString name="aacute">
          749 120 callsubr
          280 -13 callsubr
          -242 -353 rlineto
          325 -806 -100 callgsubr
        </CharString>
        <CharString name="abreve">
          -107 callgsubr
          39 1236 rmoveto
          -116 -68 71 106 -2 hvcurveto
          -204 hlineto
          -211 152 67 callgsubr
          153 125 callgsubr
          -2 69 callsubr
          endchar
        </CharString>
        <CharString name="abreveacute">
          -107 callgsubr
          -56 1448 rmoveto
          190 200 callsubr
          -237 hlineto
          -74 -547 60 callgsubr
          endchar
        </CharString>
        <CharString name="abrevedotbelow">
          -107 callgsubr
          59 1236 60 callgsubr
          -28 -1913 -57 callsubr
        </CharString>
        <CharString name="abrevegrave">
          246 1614 rmoveto
          -211 152 -144 239 76 callgsubr
          -2 -69 -71 -115 hhcurveto
          -117 -68 71 106 -2 hvcurveto
          112 174 callsubr
          60 -1159 -100 callgsubr
        </CharString>
        <CharString name="abrevehookabove">
          -107 callgsubr
          59 1235 60 callgsubr
          -215 411 rmoveto
          12 28 43 9 41 hhcurveto
          66 42 -32 -49 -43 -42 -40 -62 -23 hvcurveto
          89 -110 rlineto
          120 48 71 86 110 vvcurveto
          124 -100 204 callgsubr
        </CharString>
        <CharString name="abrevetilde">
          -107 callgsubr
          59 1236 rmoveto
          -116 -69 71 105 -2 hvcurveto
          -204 hlineto
          -210 152 -144 239 131 callgsubr
          -132 395 rmoveto
          79 48 -143 147 190 callgsubr
          128 201 callgsubr
          -87 -28 -48 -53 vhcurveto
          -80 -47 11 callsubr
          184 hlineto
          89 1 29 51 52 hhcurveto
          endchar
        </CharString>
        <CharString name="acaron">
          780 79 callsubr
          318 -806 -100 callgsubr
        </CharString>
        <CharString name="acircumflex">
          -107 callgsubr
          -85 1428 -11 callgsubr
        </CharString>
        <CharString name="acircumflexacute">
          -107 callgsubr
          277 1441 rmoveto
          219 hlineto
          236 142 callsubr
          -560 -348 -11 callgsubr
        </CharString>
        <CharString name="acircumflexdotbelow">
          -107 callgsubr
          -85 1428 -54 callgsubr
          -171 -2099 -57 callsubr
        </CharString>
        <CharString name="acircumflexgrave">
          -107 callgsubr
          581 1441 rmoveto
          -197 142 callsubr
          235 -335 rlineto
          -447 -13 -11 callgsubr
        </CharString>
        <CharString name="acircumflexhookabove">
          -107 callgsubr
          -85 1428 -54 callgsubr
          3 211 -1 callsubr
          120 184 callsubr
          -99 83 -139 -64 106 callgsubr
        </CharString>
        <CharString name="acircumflextilde">
          -107 callgsubr
          -76 1645 rmoveto
          86 43 -139 161 hhcurveto
          150 94 43 callsubr
          -161 hhcurveto
          -150 -94 -117 -189 hvcurveto
          179 hlineto
          92 2 27 44 57 hhcurveto
          -9 -217 -11 callgsubr
        </CharString>
        <CharString name="acute">
          624 -78 callsubr
          endchar
        </CharString>
        <CharString name="acutecmb">
          -107 112 -78 callsubr
          endchar
        </CharString>
        <CharString name="acutecmb.short">
          340 1602 9 callsubr
          endchar
        </CharString>
        <CharString name="acutedotaccentcmb">
          423 1297 -46 callgsubr
          477 -7 rmoveto
          280 354 rlineto
          -301 hlineto
          -241 158 callgsubr
        </CharString>
        <CharString name="acutedotaccentcmb.short">
          604 1602 rmoveto
          260 -44 callgsubr
          -463 -295 -57 callsubr
        </CharString>
        <CharString name="acyrillic">
          -107 callgsubr
          endchar
        </CharString>
        <CharString name="adblgrave">
          773 1650 rmoveto
          -248 6 callgsubr
          265 -806 -100 callgsubr
        </CharString>
        <CharString name="adieresis">
          -107 callgsubr
          -157 1086 rmoveto
          79 68 68 84 83 -68 68 -79 -80 -68 -68 -83 -84 68 -68 80 hvcurveto
          461 -52 callgsubr
          endchar
        </CharString>
        <CharString name="adieresismacron">
          867 1575 rmoveto
          -19 callsubr
          -99 callgsubr
          hvcurveto
          -461 38 callgsubr
          -719 -185 vlineto
          534 -1231 -100 callgsubr
        </CharString>
        <CharString name="adotaccent">
          -107 callgsubr
          59 1081 35 callgsubr
          endchar
        </CharString>
        <CharString name="adotbelow">
          -107 callgsubr
          31 -677 -57 callsubr
        </CharString>
        <CharString name="adotmacron">
          -107 callgsubr
          418 1522 -46 callsubr
          360 -464 -46 callgsubr
          endchar
        </CharString>
        <CharString name="ae">
          1223 358 rmoveto
          -200 hlineto
          -84 callsubr
          -226 318 rmoveto
          -256 hlineto
          65 callgsubr
          -627 -465 rmoveto
          -68 -37 43 73 74 52 55 81 8 hvcurveto
          123 13 rlineto
          -62 vlineto
          -124 -61 -80 -90 vhcurveto
          endchar
        </CharString>
        <CharString name="aeacute">
          751 -78 callsubr
          32 -819 rmoveto
          -62 vlineto
          -124 -61 -80 -90 -68 -37 43 73 74 52 55 81 8 vhcurveto
          343 212 rmoveto
          65 callgsubr
          26 -318 rmoveto
          -84 callsubr
          endchar
        </CharString>
        <CharString name="aemacron">
          1223 358 rmoveto
          -200 hlineto
          -84 callsubr
          -226 318 rmoveto
          -256 hlineto
          65 callgsubr
          -627 -465 rmoveto
          -68 -37 43 73 74 52 55 81 8 hvcurveto
          123 13 rlineto
          -62 vlineto
          -124 -61 -80 -90 vhcurveto
          629 1145 40 callgsubr
        </CharString>
        <CharString name="agrave">
          -107 callgsubr
          276 1095 172 callgsubr
          endchar
        </CharString>
        <CharString name="ahookabove">
          -107 callgsubr
          -126 1308 47 callsubr
        </CharString>
        <CharString name="ainvertedbreve">
          1027 144 callsubr
          -152 144 -238 -239 -152 117 callgsubr
          -12 -769 -100 callgsubr
        </CharString>
        <CharString name="alphagreek">
          365 644 -24 callgsubr
        </CharString>
        <CharString name="alphatonosgreek">
          472 1276 rmoveto
          224 hlineto
          155 58 callgsubr
          -187 -1008 -24 callgsubr
        </CharString>
        <CharString name="amacron">
          -107 callgsubr
          418 1155 40 callgsubr
        </CharString>
        <CharString name="ampersand">
          960 hmoveto
          288 hlineto
          -241 291 69 95 44 153 2 153 rlinecurve
          48 -215 -28 vlineto
          -1 -97 -14 -77 -25 -46 -242 283 rcurveline
          171 110 80 120 137 vvcurveto
          195 -143 135 -205 -213 -148 -135 -195 -111 52 -111 112 -124 vhcurveto
          -56 -35 rlineto
          -163 -101 -79 -127 -161 vvcurveto
          -232 183 -168 255 149 138 52 92 104 vhcurveto
          -449 498 rmoveto
          31 20 296 -352 rlineto
          -60 -60 -82 -33 -97 hhcurveto
          -133 -92 86 123 86 47 76 90 54 hvcurveto
          109 653 rmoveto
          77 58 -56 -77 -79 -46 -69 -106 -71 hvcurveto
          -81 86 -38 71 62 vvcurveto
          77 58 56 78 vhcurveto
          endchar
        </CharString>
        <CharString name="anoteleia">
          634 741 rmoveto
          112 67 71 110 191 callsubr
          -110 68 -71 112 hvcurveto
          endchar
        </CharString>
        <CharString name="aogonek">
          578 202 rmoveto
          -106 -66 51 82 85 65 49 128 8 hvcurveto
          212 13 rlineto
          -79 vlineto
          -124 -97 -85 -136 vhcurveto
          244 -202 rmoveto
          -109 -65 -52 -79 -98 vvcurveto
          -130 109 -89 159 54 65 10 14 34 vhcurveto
          165 vlineto
          -5 -17 -30 -4 -28 hhcurveto
          -74 -45 37 60 73 65 69 104 35 hvcurveto
          25 7 rlineto
          749 vlineto
          240 -159 135 -283 -262 -181 -129 -200 -20 vhcurveto
          266 hlineto
          70 23 71 41 95 hhcurveto
          113 66 -56 -95 hvcurveto
          -89 vlineto
          -258 -16 rlineto
          -272 -19 -145 -116 -199 vvcurveto
          -200 140 -133 208 144 116 60 104 54 vhcurveto
          24 hlineto
          endchar
        </CharString>
        <CharString name="approxequal">
          466 747 rmoveto
          46 42 -35 -49 56 hvcurveto
          -53 64 65 -38 178 callgsubr
          -78 -2 -23 -68 -79 hhcurveto
          -48 -40 34 48 -54 hvcurveto
          52 -61 -62 36 -87 hhcurveto
          -189 -95 -157 -242 hvcurveto
          202 hlineto
          76 5 24 72 73 hhcurveto
          -493 vmoveto
          46 42 -35 -49 56 hvcurveto
          -54 64 65 -37 178 callgsubr
          -77 -2 -23 -69 -79 hhcurveto
          -48 -40 34 47 -54 hvcurveto
          53 -61 -62 37 -87 hhcurveto
          -189 -95 -158 -241 hvcurveto
          202 hlineto
          75 5 24 72 73 hhcurveto
          endchar
        </CharString>
        <CharString name="aring">
          -107 callgsubr
          59 1179 23 callsubr
        </CharString>
        <CharString name="aringacute">
          736 1746 rmoveto
          197 241 rlineto
          -236 hlineto
          -159 -241 rlineto
          99 158 callsubr
          -128 -95 -93 -127 -126 95 -93 128 196 callgsubr
          54 40 -39 -54 -53 -40 -40 -54 hvcurveto
          174 -860 -100 callgsubr
        </CharString>
        <CharString name="aringbelow">
          -107 callgsubr
          31 -650 75 callgsubr
          108 -131 -131 -107 -108 46 callsubr
        </CharString>
        <CharString name="arrowleftright">
          825 215 rmoveto
          498 501 -498 502 -146 -146 139 -127 180 -120 rlineto
          -20 vlineto
          -237 18 rlineto
          -256 hlineto
          -237 -18 rlineto
          20 vlineto
          180 120 139 127 -146 146 -498 -502 498 -501 146 146 -139 126 -180 121 rlineto
          19 vlineto
          236 -18 rlineto
          257 hlineto
          237 18 rlineto
          -19 vlineto
          -180 -121 -139 -126 rlineto
          endchar
        </CharString>
        <CharString name="asciicircum">
          624 1125 rmoveto
          18 hlineto
          227 -511 rlineto
          285 hlineto
          -392 829 191 callgsubr
          -392 -829 rlineto
          286 hlineto
          endchar
        </CharString>
        <CharString name="asciitilde">
          422 962 rmoveto
          -188 -120 -152 -239 -1 hvcurveto
          -15 1 -18 2 -16 vhcurveto
          225 hlineto
          120 4 38 58 73 hhcurveto
          40 33 -20 -59 59 hvcurveto
          -94 93 72 -36 95 hhcurveto
          187 118 154 239 1 hvcurveto
          14 -1 18 -2 16 vhcurveto
          -223 hlineto
          -118 -5 -37 -60 -70 hhcurveto
          -41 -35 20 58 -58 hvcurveto
          96 -96 -69 34 -95 hhcurveto
          endchar
        </CharString>
        <CharString name="asterisk">
          1199 839 rmoveto
          -109 197 -366 -233 17 431 rlineto
          -216 hlineto
          17 -431 -366 234 -109 -198 378 -197 -378 -198 109 -196 366 233 -17 -431 rlineto
          216 hlineto
          -17 431 366 -234 109 197 -378 198 rlineto
          endchar
        </CharString>
        <CharString name="at">
          681 -205 rmoveto
          84 98 15 20 48 hvcurveto
          147 vlineto
          -18 -40 -88 -11 -91 hhcurveto
          -309 -127 186 455 hvcurveto
          110 vlineto
          448 113 178 279 264 118 -165 -381 vhcurveto
          -253 vlineto
          -79 -31 -32 -79 vhcurveto
          -138 437 hlineto
          85 -47 55 -72 -72 -48 -55 -85 vhcurveto
          -435 vlineto
          -84 52 -55 79 vhcurveto
          280 hlineto
          147 82 93 169 hvcurveto
          275 vlineto
          442 -180 222 -353 -373 -181 -253 -530 vhcurveto
          -128 vlineto
          -526 188 -247 397 vhcurveto
          endchar
        </CharString>
        <CharString name="atilde">
          -107 callgsubr
          -73 1206 rmoveto
          79 -19 callgsubr
          -28 -48 -53 vhcurveto
          -80 -47 143 -147 hhcurveto
          -154 2 callgsubr
          52 hhcurveto
          endchar
        </CharString>
        <CharString name="austral">
          1260 hmoveto
          -113 357 rlineto
          78 151 -124 hlineto
          -49 153 rlineto
          173 150 -220 hlineto
          -197 632 rlineto
          -350 hlineto
          -198 -632 rlineto
          -219 -150 173 hlineto
          -49 -153 rlineto
          -124 -151 78 hlineto
          -113 -357 rlineto
          284 hlineto
          105 357 rlineto
          476 hlineto
          104 -357 rlineto
          -538 508 rmoveto
          49 167 rlineto
          294 hlineto
          49 -167 rlineto
          -188 646 rmoveto
          104 -357 rlineto
          -224 hlineto
          104 357 rlineto
          endchar
        </CharString>
        <CharString name="b">
          -71 callgsubr
          endchar
        </CharString>
        <CharString name="backslash">
          1113 -220 rmoveto
          -679 1883 rlineto
          -281 hlineto
          686 -1883 rlineto
          endchar
        </CharString>
        <CharString name="baht">
          637 643 rmoveto
          154 -5 81 -73 -137 vvcurveto
          -138 -80 -74 -155 -4 vhcurveto
          -275 hmoveto
          431 150 -431 vlineto
          -150 1019 rmoveto
          150 -383 -150 hlineto
          275 382 rmoveto
          119 -9 72 -69 -113 vvcurveto
          -108 -70 -68 -121 -13 vhcurveto
          209 -76 rmoveto
          144 23 107 131 156 vvcurveto
          223 -159 136 -263 vhcurveto
          -38 145 -125 -145 -408 -1443 408 -139 125 139 54 hlineto
          291 180 159 252 187 -134 145 -182 14 hvcurveto
          endchar
        </CharString>
        <CharString name="bar">
          769 -483 rmoveto
          2146 -272 -2146 vlineto
          endchar
        </CharString>
        <CharString name="bdotaccent">
          -71 callgsubr
          128 1062 138 callgsubr
          endchar
        </CharString>
        <CharString name="bdotbelow">
          -71 callgsubr
          -17 -696 rmoveto
          73 callgsubr
        </CharString>
        <CharString name="becyrillic">
          639 205 rmoveto
          -165 -89 111 210 197 96 119 158 164 89 -110 -206 -210 -89 -111 -164 hvcurveto
          -304 627 rmoveto
          27 282 112 128 241 6 rrcurveto
          44 73 4 3 48 hvcurveto
          92 6 81 15 52 21 rrcurveto
          224 vlineto
          -40 -14 -73 -11 -125 -14 -68 -7 -66 -4 -41 -3 rrcurveto
          -406 -18 -182 -241 -516 vvcurveto
          -65 vlineto
          -435 179 -217 358 338 195 206 358 331 -176 195 -292 -167 -120 -92 -142 -54 vhcurveto
          endchar
        </CharString>
        <CharString name="betagreek">
          151 -367 rmoveto
          262 554 20 hlineto
          -127 42 109 -79 178 hhcurveto
          247 162 190 263 212 -111 134 -215 44 hvcurveto
          18 vlineto
          130 41 89 123 140 vvcurveto
          243 -171 158 -274 -287 -181 -168 -267 vhcurveto
          517 -900 rmoveto
          -157 -100 92 169 hvcurveto
          618 vlineto
          147 76 84 132 120 73 -77 -117 -123 -81 -76 -132 vhcurveto
          -69 -225 95 hlineto
          169 107 -97 -150 -147 -91 -98 -142 hvcurveto
          endchar
        </CharString>
        <CharString name="bitcoin">
          380 239 rmoveto
          402 233 vlineto
          179 90 -67 -128 -131 -87 -76 -165 hvcurveto
          -250 958 rmoveto
          230 hlineto
          140 77 -63 -112 -117 -88 -66 -155 hvcurveto
          -204 hlineto
          449 -71 rmoveto
          155 24 119 133 150 vvcurveto
          200 -127 120 -230 17 vhcurveto
          205 -138 -204 -156 204 -138 -204 -199 -1390 199 -202 138 202 156 -202 138 202 vlineto
          268 11 155 149 232 vvcurveto
          181 -144 142 -196 13 vhcurveto
          endchar
        </CharString>
        <CharString name="blinebelow">
          -71 callgsubr
          342 -635 -55 callgsubr
          endchar
        </CharString>
        <CharString name="braceleft">
          1051 -220 rmoveto
          220 -96 vlineto
          -142 -28 33 165 hvcurveto
          278 vlineto
          137 -98 88 -181 11 vhcurveto
          18 vlineto
          181 11 98 89 136 vvcurveto
          279 vlineto
          165 28 33 142 vhcurveto
          96 220 -161 hlineto
          -289 -94 -91 -280 hvcurveto
          -221 vlineto
          -158 -72 -61 -220 9 vhcurveto
          -279 vlineto
          220 8 72 -61 -158 vvcurveto
          -220 vlineto
          -280 94 -91 289 vhcurveto
          endchar
        </CharString>
        <CharString name="braceright">
          376 -220 rmoveto
          289 94 91 280 hvcurveto
          220 vlineto
          158 72 61 220 -8 vhcurveto
          279 vlineto
          -220 -9 -72 61 158 vvcurveto
          221 vlineto
          280 -94 91 -289 vhcurveto
          -161 -220 96 hlineto
          142 28 -33 -165 hvcurveto
          -279 vlineto
          -136 98 -89 181 -11 vhcurveto
          -18 vlineto
          -181 -11 -98 -88 -137 vvcurveto
          -278 vlineto
          -165 -28 -33 -142 vhcurveto
          -96 -220 hlineto
          endchar
        </CharString>
        <CharString name="bracketleft">
          331 1663 rmoveto
          -1883 634 220 -362 -49 callgsubr
          355 220 vlineto
          endchar
        </CharString>
        <CharString name="bracketright">
          339 1663 rmoveto
          -220 354 -1443 -362 -220 634 1883 vlineto
          endchar
        </CharString>
        <CharString name="breve">
          633 1407 -3 callsubr
        </CharString>
        <CharString name="breveacutecmb">
          518 1649 rmoveto
          190 200 callsubr
          -237 hlineto
          -74 -547 rmoveto
          -45 callgsubr
          endchar
        </CharString>
        <CharString name="breveacutecmb.short">
          508 1914 rmoveto
          206 hlineto
          206 250 rlineto
          -247 hlineto
          -426 -265 rmoveto
          42 callgsubr
          -193 hlineto
          64 callsubr
          endchar
        </CharString>
        <CharString name="brevebelowcmb">
          633 -297 -3 callsubr
        </CharString>
        <CharString name="brevecmb">
          633 1407 -3 callsubr
        </CharString>
        <CharString name="brevecmb.short">
          247 1927 rmoveto
          -198 151 -30 callsubr
        </CharString>
        <CharString name="brevecyrillic">
          263 -23 callsubr
          endchar
        </CharString>
        <CharString name="brevecyrillic.short">
          59 callsubr
          endchar
        </CharString>
        <CharString name="brevegravecmb">
          242 1614 rmoveto
          -211 195 callsubr
          211 vhcurveto
          -205 185 callsubr
          101 callgsubr
          113 174 callsubr
          endchar
        </CharString>
        <CharString name="brevegravecmb.short">
          132 callgsubr
          -305 -15 rmoveto
          42 callgsubr
          -193 hlineto
          64 callsubr
          endchar
        </CharString>
        <CharString name="brevehookabovecmb">
          633 1436 rmoveto
          -45 callgsubr
          -214 411 rmoveto
          12 28 42 9 41 hhcurveto
          67 42 -32 -49 172 callsubr
          86 110 vvcurveto
          124 -99 83 -139 -65 -56 145 callsubr
        </CharString>
        <CharString name="brevehookabovecmb.short">
          441 2046 rmoveto
          154 callgsubr
          90 -96 rlineto
          132 callsubr
          -184 -311 rmoveto
          146 callsubr
          -174 hlineto
          174 callgsubr
          endchar
        </CharString>
        <CharString name="brevetildecmb">
          633 1437 59 callgsubr
          -132 395 -43 callgsubr
        </CharString>
        <CharString name="brevetildecmb.short">
          263 1852 68 callgsubr
          336 57 rmoveto
          127 94 94 157 hvcurveto
          -162 hlineto
          70 callsubr
          endchar
        </CharString>
        <CharString name="brokenbar">
          769 782 rmoveto
          881 -272 -881 vlineto
          272 -1266 rmoveto
          882 -272 -882 vlineto
          endchar
        </CharString>
        <CharString name="bullet">
          633 192 rmoveto
          246 201 202 248 248 -201 202 -246 -246 -201 -202 -248 -248 201 -202 246 hvcurveto
          endchar
        </CharString>
        <CharString name="c">
          1132 718 -6 callsubr
        </CharString>
        <CharString name="cacute">
          754 120 callsubr
          281 -13 callsubr
          -242 -353 rlineto
          640 -8 callsubr
        </CharString>
        <CharString name="caron">
          777 -70 callsubr
          endchar
        </CharString>
        <CharString name="caroncmb">
          777 -70 callsubr
          endchar
        </CharString>
        <CharString name="caroncmb.short">
          1041 -45 callsubr
          endchar
        </CharString>
        <CharString name="carondotaccentcmb">
          633 1691 rmoveto
          -98 callsubr
          144 -421 rmoveto
          267 357 -50 callsubr
          -259 hlineto
          267 -357 rlineto
          endchar
        </CharString>
        <CharString name="carondotaccentcmb.short">
          633 1909 rmoveto
          88 62 62 83 83 -62 61 -88 -88 -62 -61 -83 -83 62 -62 88 63 callsubr
        </CharString>
        <CharString name="ccaron">
          785 79 callsubr
          634 -8 callsubr
        </CharString>
        <CharString name="ccedilla">
          -38 callgsubr
        </CharString>
        <CharString name="ccedillaacute">
          1035 1649 rmoveto
          -301 hlineto
          -242 -353 rlineto
          262 hlineto
          -329 -706 -30 callgsubr
          -300 144 -179 264 -34 vhcurveto
          -45 -102 rlineto
          -5 callgsubr
          38 86 241 23 141 137 22 240 rlinecurve
          -268 hlineto
          -118 -19 -72 -57 -120 hhcurveto
          -147 -81 110 202 hvcurveto
          endchar
        </CharString>
        <CharString name="ccircumflex">
          1132 718 -85 callgsubr
          -366 911 -54 callsubr
          endchar
        </CharString>
        <CharString name="cdotaccent">
          1132 718 -85 callgsubr
          -222 567 27 callsubr
        </CharString>
        <CharString name="cedi">
          585 228 rmoveto
          -172 39 -99 181 274 vvcurveto
          273 99 182 172 38 vhcurveto
          384 -724 rmoveto
          -22 -137 -85 -100 -131 -26 rrcurveto
          986 vlineto
          128 -27 88 -105 21 -143 rrcurveto
          275 hlineto
          -17 286 -204 219 -291 31 rrcurveto
          113 -146 -112 vlineto
          -352 -33 -208 -280 -441 vvcurveto
          -441 208 -280 352 -34 vhcurveto
          -126 146 127 vlineto
          296 29 199 208 18 286 rrcurveto
          endchar
        </CharString>
        <CharString name="cedilla">
          468 -238 rmoveto
          59 hlineto
          88 38 -16 -40 -38 -38 -19 -70 -40 -54 98 callsubr
          54 hhcurveto
          165 96 -11 callsubr
          -120 7 hvcurveto
          46 107 rlineto
          -171 hlineto
          -53 -120 rlineto
          endchar
        </CharString>
        <CharString name="cedillacmb">
          503 -238 rmoveto
          59 hlineto
          51 callgsubr
          -171 hlineto
          -53 -120 rlineto
          endchar
        </CharString>
        <CharString name="cent">
          848 511 rmoveto
          -68 -5 -50 -73 -137 hhcurveto
          -139 -74 96 161 hvcurveto
          152 vlineto
          152 80 89 133 126 59 -73 -79 3 vhcurveto
          264 hlineto
          -3 204 -120 153 -219 37 rrcurveto
          188 -239 -193 vlineto
          -200 -43 -163 -150 -283 vvcurveto
          -159 vlineto
          -306 149 -148 214 -37 vhcurveto
          -189 239 191 vlineto
          199 36 144 128 3 214 rrcurveto
          endchar
        </CharString>
        <CharString name="checyrillic">
          1099 1103 rmoveto
          -274 -427 hlineto
          -47 callsubr
          274 hlineto
          endchar
        </CharString>
        <CharString name="chigreek">
          88 -367 rmoveto
          279 hlineto
          254 478 rlineto
          16 hlineto
          163 -314 rlineto
          -125 63 66 -49 137 hhcurveto
          48 57 6 11 31 hvcurveto
          209 vlineto
          -5 -21 -19 -4 -18 hhcurveto
          -64 -32 30 90 -48 hvcurveto
          -215 404 420 739 rlineto
          -278 hlineto
          -259 -486 rlineto
          -16 hlineto
          -159 305 rlineto
          140 -71 -62 56 -150 hhcurveto
          -42 -50 -7 -11 -33 hvcurveto
          -208 vlineto
          5 20 22 3 15 hhcurveto
          66 28 -34 -90 48 hvcurveto
          220 -411 rlineto
          endchar
        </CharString>
        <CharString name="circumflex">
          489 1629 -99 callsubr
          endchar
        </CharString>
        <CharString name="circumflexacutecmb">
          852 1642 rmoveto
          219 hlineto
          235 142 callsubr
          -560 -348 -99 callsubr
          endchar
        </CharString>
        <CharString name="circumflexacutecmb.short">
          867 1877 rmoveto
          227 hlineto
          212 287 rlineto
          -255 hlineto
          -283 -324 -72 callsubr
          endchar
        </CharString>
        <CharString name="circumflexbelowcmb">
          489 -160 -99 callsubr
          endchar
        </CharString>
        <CharString name="circumflexcmb">
          489 1629 -99 callsubr
          endchar
        </CharString>
        <CharString name="circumflexcmb.short">
          761 1937 -48 callgsubr
          endchar
        </CharString>
        <CharString name="circumflexgravecmb">
          1155 1642 rmoveto
          -197 142 callsubr
          235 -335 rlineto
          -447 -13 -99 callsubr
          endchar
        </CharString>
        <CharString name="circumflexgravecmb.short">
          1149 1877 66 callgsubr
          -154 -37 -72 callsubr
          endchar
        </CharString>
        <CharString name="circumflexhookabovecmb">
          489 1629 -99 callsubr
          2 211 rmoveto
          13 29 42 84 callsubr
          -62 -23 hvcurveto
          89 -110 rlineto
          -4 callsubr
          -37 vhcurveto
          endchar
        </CharString>
        <CharString name="circumflexhookabovecmb.short">
          778 2027 rmoveto
          77 callgsubr
          -60 -24 hvcurveto
          97 -98 rlineto
          34 callgsubr
          -10 -328 -72 callsubr
          endchar
        </CharString>
        <CharString name="circumflextildecmb">
          499 1846 -8 callgsubr
        </CharString>
        <CharString name="circumflextildecmb.short">
          768 1840 -41 callgsubr
          51 97 22 -126 161 hhcurveto
          endchar
        </CharString>
        <CharString name="colon">
          213 callgsubr
          125 -99 101 -121 -121 -99 -101 -125 -123 99 -102 121 hvcurveto
          757 vmoveto
          121 99 102 124 124 -99 101 -121 -121 -99 -101 -124 -124 99 -102 121 hvcurveto
          endchar
        </CharString>
        <CharString name="coloncurrency">
          834 1218 rmoveto
          2 15 15 0 16 hhcurveto
          42 43 -2 -4 39 hvcurveto
          -286 -972 -57 14 -50 23 -44 29 rlinecurve
          -116 108 rmoveto
          -55 80 -30 102 124 vvcurveto
          240 119 165 194 61 vhcurveto
          75 -1347 rmoveto
          41 139 rlineto
          -5 26 28 -3 29 hhcurveto
          102 106 13 13 72 hvcurveto
          251 vlineto
          -14 -51 -90 -12 -95 hhcurveto
          -21 -21 2 3 -19 hvcurveto
          393 1360 rlineto
          -147 hlineto
          -39 -133 -49 7 -53 6 -55 1 rlinecurve
          -10 hlineto
          34 119 rlineto
          -148 hlineto
          -35 -124 rlineto
          -419 -43 -250 -270 -429 vvcurveto
          -276 103 -205 185 -123 vhcurveto
          -83 -277 rlineto
          147 hlineto
          64 211 47 -23 52 -19 55 -13 rlinecurve
          -47 -156 rlineto
          endchar
        </CharString>
        <CharString name="comma">
          622 -335 rmoveto
          190 754 rlineto
          -320 hlineto
          -133 -754 rlineto
          endchar
        </CharString>
        <CharString name="commaaccent">
          671 -494 -2 callsubr
        </CharString>
        <CharString name="commabelowcmb">
          137 callgsubr
          endchar
        </CharString>
        <CharString name="copyright">
          888 801 rmoveto
          131 -13 -91 79 -138 hhcurveto
          -174 -96 -103 -186 -186 96 -103 174 137 92 79 127 13 hvcurveto
          -145 hlineto
          -52 -10 -37 -28 -55 hhcurveto
          -77 -43 58 105 105 43 58 77 55 36 -31 -53 11 hvcurveto
          -110 -628 rmoveto
          303 239 239 310 310 -239 239 -303 -303 -239 -239 -310 -310 239 -239 303 hvcurveto
          98 vmoveto
          -245 -191 199 252 252 191 199 245 245 191 -199 -252 -252 -191 -199 -245 hvcurveto
          endchar
        </CharString>
        <CharString name="cruzeiro">
          1143 249 rmoveto
          -34 -9 -50 -8 -54 -3 -28 -3 -33 -2 -34 -1 rrcurveto
          238 vlineto
          147 75 90 128 36 44 -8 -8 19 vhcurveto
          218 vlineto
          8 -21 -28 5 -31 hhcurveto
          -111 -80 -79 -106 -24 hvcurveto
          -14 169 -218 -650 hlineto
          -211 56 -122 165 254 vvcurveto
          312 198 186 315 95 114 -13 -13 58 vhcurveto
          243 vlineto
          20 -63 -116 13 -94 hhcurveto
          -492 -298 -278 -470 -478 294 -272 501 101 106 13 13 72 hvcurveto
          endchar
        </CharString>
        <CharString name="currency">
          1166 1018 rmoveto
          -164 179 -144 -155 rlineto
          41 -65 -75 20 -81 hhcurveto
          -77 -75 -21 -40 -67 hvcurveto
          -144 155 -165 -179 143 -147 rlineto
          -40 -65 -21 -74 -84 vvcurveto
          -85 20 -73 41 -67 vhcurveto
          -143 -146 165 -179 145 155 rlineto
          -40 65 75 -20 78 hhcurveto
          80 75 20 41 65 hvcurveto
          145 -156 164 179 -142 146 rlineto
          41 67 21 73 85 vvcurveto
          85 -21 74 -40 64 vhcurveto
          -387 -448 rmoveto
          -128 -96 98 127 127 96 98 128 128 96 -98 -127 -127 -96 -98 -128 hvcurveto
          endchar
        </CharString>
        <CharString name="d">
          388 647 -91 callgsubr
        </CharString>
        <CharString name="dagger">
          740 737 rmoveto
          373 -3 rlineto
          226 vlineto
          -373 -2 6 396 rlineto
          -226 hlineto
          6 -396 -373 2 rlineto
          -226 vlineto
          373 3 -6 -907 rlineto
          226 hlineto
          endchar
        </CharString>
        <CharString name="daggerdbl">
          1113 224 rmoveto
          225 vlineto
          -371 -3 rlineto
          291 vlineto
          371 -3 rlineto
          226 vlineto
          -370 -2 3 396 rlineto
          -226 hlineto
          3 -396 -370 2 rlineto
          -226 vlineto
          371 3 rlineto
          -291 vlineto
          -371 3 rlineto
          -225 vlineto
          370 2 -3 -396 rlineto
          226 hlineto
          -3 396 rlineto
          endchar
        </CharString>
        <CharString name="darkshade">
          1054 1354 rmoveto
          -106 -105 106 vlineto
          -105 189 callgsubr
          -105 189 callgsubr
          -106 hmoveto
          -106 -104 106 vlineto
          -106 hmoveto
          -106 -105 106 vlineto
          843 -317 rmoveto
          -105 106 105 hlineto
          -632 200 callgsubr
          843 200 callgsubr
          -633 200 callgsubr
          211 -106 rmoveto
          -105 106 105 hlineto
          -105 -212 rmoveto
          -104 -106 104 vlineto
          527 hmoveto
          -104 -105 104 vlineto
          -105 hmoveto
          -104 -106 104 vlineto
          -317 hmoveto
          -104 -104 104 vlineto
          -106 hmoveto
          -104 -105 104 vlineto
          843 -210 rmoveto
          -106 -105 106 vlineto
          -317 189 callgsubr
          739 189 callgsubr
          -316 hmoveto
          -106 -105 106 vlineto
          -316 200 callgsubr
          737 -211 rmoveto
          -106 -105 106 vlineto
          -632 -106 rmoveto
          106 104 -106 vlineto
          -210 106 rmoveto
          -106 -105 106 vlineto
          738 189 callgsubr
          -105 189 callgsubr
          317 -316 rmoveto
          105 105 -105 vlineto
          -738 hmoveto
          105 106 -105 vlineto
          316 hmoveto
          105 105 -105 vlineto
          316 hmoveto
          105 106 -105 vlineto
          -739 hmoveto
          105 106 -105 vlineto
          317 -106 rmoveto
          -105 -106 199 callgsubr
          -105 105 vlineto
          315 hmoveto
          -105 -104 105 vlineto
          737 hmoveto
          -105 -105 105 vlineto
          -316 hmoveto
          -105 -106 105 vlineto
          106 -316 rmoveto
          105 105 -105 vlineto
          316 hmoveto
          105 106 -105 vlineto
          -949 hmoveto
          105 106 -105 vlineto
          104 hmoveto
          105 106 -105 vlineto
          317 hmoveto
          105 105 -105 vlineto
          -738 -211 rmoveto
          106 106 104 -106 106 106 106 -106 105 106 106 -106 105 106 105 -106 106 106 106 316 -106 105 106 316 -106 106 106 317 -106 104 106 317 -106 106 106 210 -106 -106 -106 106 -105 -106 -105 106 -106 -106 -105 hlineto
          106 -106 -106 -106 106 -104 -106 -106 106 -105 -106 -106 -315 106 -106 -106 -316 106 -106 -106 -316 106 -105 -106 -317 106 -105 -106 -211 106 106 105 vlineto
          endchar
        </CharString>
        <CharString name="dbldnhorzbxd">
          104 callsubr
          1672 -630 76 callsubr
          -405 -1085 rmoveto
          73 callsubr
        </CharString>
        <CharString name="dbldnleftbxd">
          937 -840 rmoveto
          1715 -1140 -210 937 -1505 vlineto
          -202 hmoveto
          73 callsubr
        </CharString>
        <CharString name="dbldnrightbxd">
          1469 665 rmoveto
          210 -1140 -1715 203 1505 vlineto
          937 -420 76 callsubr
          endchar
        </CharString>
        <CharString name="dblgrave">
          871 1650 rmoveto
          -248 6 callgsubr
          endchar
        </CharString>
        <CharString name="dblgravecmb">
          871 1650 rmoveto
          -248 6 callgsubr
          endchar
        </CharString>
        <CharString name="dblgravecmb.short">
          849 110 callsubr
          275 -318 rlineto
          227 hlineto
          endchar
        </CharString>
        <CharString name="dblhorzbxd">
          104 callsubr
          -630 vmoveto
          57 callsubr
          endchar
        </CharString>
        <CharString name="dbluphorzbxd">
          734 665 rmoveto
          735 210 -532 1085 54 callsubr
          -420 vmoveto
          57 callsubr
          endchar
        </CharString>
        <CharString name="dblupleftbxd">
          532 665 rmoveto
          1295 -203 -1085 -532 -210 vlineto
          1140 -420 rmoveto
          1715 -203 -1505 -937 -210 vlineto
          endchar
        </CharString>
        <CharString name="dbluprightbxd">
          734 665 193 callsubr
          -405 -1715 rmoveto
          1140 210 -937 1505 -203 hlineto
          endchar
        </CharString>
        <CharString name="dblvertbxd">
          183 callgsubr
          -405 -2800 100 callsubr
          endchar
        </CharString>
        <CharString name="dblverthorzbxd">
          734 665 rmoveto
          735 210 -532 1085 54 callsubr
          1672 -420 76 callsubr
          -405 -1085 rmoveto
          73 callsubr
        </CharString>
        <CharString name="dblvertleftbxd">
          734 -840 rmoveto
          203 2800 54 callsubr
          735 -1505 rmoveto
          73 callsubr
        </CharString>
        <CharString name="dblvertrightbxd">
          329 99 callgsubr
          405 -1295 193 callsubr
          735 -1715 76 callsubr
          endchar
        </CharString>
        <CharString name="dcaron">
          299 640 rmoveto
          171 63 80 129 129 63 -80 -171 vhcurveto
          -168 vlineto
          -172 -63 -80 -129 -129 -63 80 172 vhcurveto
          412 -282 rmoveto
          -190 230 1523 -233 -608 -21 vlineto
          136 -38 -98 70 -143 hhcurveto
          -238 -112 -153 -321 hvcurveto
          -190 vlineto
          -321 112 -153 238 144 98 69 138 41 vhcurveto
          349 1333 rmoveto
          -491 176 vlineto
          34 491 rlineto
          endchar
        </CharString>
        <CharString name="dcircumflexbelow">
          489 -160 -99 callsubr
          -389 807 -91 callgsubr
        </CharString>
        <CharString name="dcommaaccent">
          137 callgsubr
          -37 1157 -91 callgsubr
        </CharString>
        <CharString name="dcroat">
          839 465 rmoveto
          201 callsubr
          -142 198 callsubr
          vhcurveto
          182 vlineto
          152 87 92 141 142 86 -92 -152 vhcurveto
          413 753 rmoveto
          -135 123 -285 -123 -160 -144 160 -341 -20 hlineto
          132 -37 -110 74 -159 hhcurveto
          -253 -149 -174 -300 hvcurveto
          -190 vlineto
          -300 149 -174 253 161 110 73 134 38 vhcurveto
          21 -190 281 1256 135 hlineto
          endchar
        </CharString>
        <CharString name="ddotaccent">
          484 1282 35 callgsubr
          -96 -635 -91 callgsubr
        </CharString>
        <CharString name="ddotbelow">
          50 callsubr
          -245 1123 -91 callgsubr
        </CharString>
        <CharString name="decyrillic">
          5 callsubr
        </CharString>
        <CharString name="degree">
          633 799 rmoveto
          202 151 153 204 204 -151 153 -202 -202 -150 -153 -204 -204 150 -153 202 hvcurveto
          175 vmoveto
          -103 -74 76 106 106 74 76 103 104 74 -76 -106 -106 -74 -76 -104 hvcurveto
          endchar
        </CharString>
        <CharString name="deltagreek">
          1150 529 rmoveto
          253 -123 147 -312 160 vhcurveto
          -121 58 -39 36 53 vvcurveto
          66 65 30 94 110 116 -31 -53 111 vhcurveto
          219 vlineto
          51 -99 -124 29 -156 hhcurveto
          -251 -136 -121 -162 -116 61 -82 138 -68 hvcurveto
          -20 vlineto
          -232 -28 -143 -190 -239 vvcurveto
          -38 vlineto
          -314 193 -193 327 322 199 198 313 vhcurveto
          -517 335 rmoveto
          153 97 -112 -173 hvcurveto
          -51 vlineto
          -178 -91 -108 -158 -161 -93 103 180 vhcurveto
          54 vlineto
          178 98 107 155 vhcurveto
          endchar
        </CharString>
        <CharString name="dieresis">
          402 1299 -102 callgsubr
          endchar
        </CharString>
        <CharString name="dieresisacutecmb">
          502 1649 rmoveto
          229 hlineto
          256 335 rlineto
          -267 hlineto
          -318 -713 -102 callgsubr
          endchar
        </CharString>
        <CharString name="dieresisacutecmb.short">
          501 1923 rmoveto
          229 hlineto
          206 241 rlineto
          -270 hlineto
          -260 -602 -27 callsubr
          13 callsubr
          78 hvcurveto
          endchar
        </CharString>
        <CharString name="dieresisbelowcmb">
          402 -465 -102 callgsubr
          endchar
        </CharString>
        <CharString name="dieresiscaroncmb">
          760 1649 rmoveto
          270 341 rlineto
          -234 hlineto
          -154 -210 rlineto
          -18 hlineto
          -154 210 rlineto
          -234 hlineto
          270 -341 rlineto
          -104 -378 -102 callgsubr
          endchar
        </CharString>
        <CharString name="dieresiscaroncmb.short">
          759 1901 rmoveto
          274 296 rlineto
          -244 hlineto
          -147 -168 rlineto
          -18 hlineto
          -147 168 rlineto
          -244 hlineto
          274 -296 rlineto
          -101 -339 -27 callsubr
          13 callsubr
          78 hvcurveto
          endchar
        </CharString>
        <CharString name="dieresiscmb">
          402 1287 52 callsubr
        </CharString>
        <CharString name="dieresiscmb.short">
          402 1619 -102 callgsubr
          endchar
        </CharString>
        <CharString name="dieresisgravecmb">
          402 1271 -102 callgsubr
          -318 713 rmoveto
          -267 hlineto
          256 -335 rlineto
          229 hlineto
          endchar
        </CharString>
        <CharString name="dieresisgravecmb.short">
          407 1562 34 callsubr
          455 hmoveto
          79 64 66 82 82 -64 66 -79 103 callsubr
          endchar
        </CharString>
        <CharString name="dieresismacroncmb">
          21 callgsubr
          endchar
        </CharString>
        <CharString name="dieresismacroncmb.short">
          862 1858 139 callsubr
          -593 111 rmoveto
          731 167 -731 111 callgsubr
          endchar
        </CharString>
        <CharString name="dieresistonosgreek">
          488 1276 21 callsubr
        </CharString>
        <CharString name="divide">
          1161 526 rmoveto
          232 -1056 -232 vlineto
          528 346 rmoveto
          99 66 68 98 98 -66 66 -99 -98 -66 -66 -98 -98 66 -68 98 hvcurveto
          -791 vmoveto
          99 66 67 98 98 -66 67 -99 -98 -66 -67 -98 -98 66 -67 98 hvcurveto
          endchar
        </CharString>
        <CharString name="djecyrillic">
          405 915 rmoveto
          341 258 144 -258 123 -267 -123 -127 -144 127 -1256 273 49 callsubr
          -675 vlineto
          -92 -42 -37 -105 -8 -22 0 1 -6 vhcurveto
          -212 vlineto
          -2 11 45 -2 20 hhcurveto
          251 130 115 220 hvcurveto
          751 vlineto
          266 -132 146 -239 -161 -123 -76 -132 -53 vhcurveto
          endchar
        </CharString>
        <CharString name="dlinebelow">
          992 -415 -55 callgsubr
          114 1062 -91 callgsubr
        </CharString>
        <CharString name="dndblhorzsngbxd">
          104 callgsubr
          -1672 87 callsubr
        </CharString>
        <CharString name="dndblleftsngbxd">
          164 callsubr
          1505 -1140 87 callsubr
        </CharString>
        <CharString name="dndblrightsngbxd">
          104 callgsubr
          -1140 -1505 203 1295 202 hlineto
          endchar
        </CharString>
        <CharString name="dneighthblock">
          108 callsubr
          256 120 callgsubr
        </CharString>
        <CharString name="dnfiveeighthsblock">
          108 callsubr
          1280 120 callgsubr
        </CharString>
        <CharString name="dnhalfblock">
          108 callsubr
          1024 120 callgsubr
        </CharString>
        <CharString name="dnheavyhorzlightbxd">
          2 callsubr
          -1672 215 callsubr
          -1295 364 61 callsubr
        </CharString>
        <CharString name="dnheavyleftlightbxd">
          152 callsubr
          1505 -1018 157 callgsubr
        </CharString>
        <CharString name="dnheavyleftuplightbxd">
          147 callsubr
          -735 157 callgsubr
        </CharString>
        <CharString name="dnheavyrightlightbxd">
          2 callsubr
          -1018 -1505 364 61 callsubr
        </CharString>
        <CharString name="dnheavyrightuplightbxd">
          -17 callsubr
          -1295 -81 -1505 364 61 callsubr
        </CharString>
        <CharString name="dnheavyuphorzlightbxd">
          -17 callsubr
          -1295 -735 215 callsubr
          -1295 364 61 callsubr
        </CharString>
        <CharString name="dnleftquadrant">
          -464 vmoveto
          108 callgsubr
        </CharString>
        <CharString name="dnlighthorzheavybxd">
          -39 callgsubr
          -1672 62 callsubr
        </CharString>
        <CharString name="dnlightleftheavybxd">
          116 callgsubr
          1589 -937 156 callsubr
        </CharString>
        <CharString name="dnlightleftupheavybxd">
          815 371 rmoveto
          1589 117 callsubr
        </CharString>
        <CharString name="dnlightrightheavybxd">
          -39 callgsubr
          -937 -1589 202 50 callgsubr
        </CharString>
        <CharString name="dnlightrightupheavybxd">
          -39 callgsubr
          -654 1211 -364 -1589 81 -1211 202 50 callgsubr
        </CharString>
        <CharString name="dnlightuphorzheavybxd">
          -39 callgsubr
          -654 1211 117 callsubr
        </CharString>
        <CharString name="dnquarterblock">
          108 callsubr
          512 120 callgsubr
        </CharString>
        <CharString name="dnrightquadrant">
          633 -464 rmoveto
          108 callgsubr
        </CharString>
        <CharString name="dnseveneighthsblock">
          108 callsubr
          1792 120 callgsubr
        </CharString>
        <CharString name="dnsnghorzdblbxd">
          104 callsubr
          1672 -630 rmoveto
          206 callsubr
          157 callsubr
          -1085 188 callgsubr
        </CharString>
        <CharString name="dnsngleftdblbxd">
          116 callgsubr
          1715 -937 157 callsubr
          -210 127 callsubr
          -1085 vlineto
          endchar
        </CharString>
        <CharString name="dnsngrightdblbxd">
          92 callgsubr
          -937 -1715 188 callgsubr
        </CharString>
        <CharString name="dnthreeeighthsblock">
          108 callsubr
          768 120 callgsubr
        </CharString>
        <CharString name="dnthreequartersblock">
          108 callsubr
          1536 120 callgsubr
        </CharString>
        <CharString name="dollar">
          710 593 rmoveto
          164 -41 69 -61 -102 vvcurveto
          -111 -93 -81 -140 -19 vhcurveto
          -131 692 rmoveto
          -151 41 -62 57 96 vvcurveto
          108 81 75 132 18 vhcurveto
          131 -425 rmoveto
          424 vlineto
          122 -21 83 -76 14 -109 rrcurveto
          230 hlineto
          -10 231 -179 162 -260 24 rrcurveto
          215 callgsubr
          -108 vlineto
          -278 -22 -178 -165 -244 vvcurveto
          -216 127 -132 266 -59 vhcurveto
          63 -14 rlineto
          -446 vlineto
          -144 19 -98 80 -13 116 rrcurveto
          -235 hlineto
          12 -247 188 -160 290 -19 rrcurveto
          -108 131 109 vlineto
          293 23 181 168 257 vvcurveto
          222 -121 122 -289 65 vhcurveto
          endchar
        </CharString>
        <CharString name="dotaccent">
          633 121 callgsubr
          endchar
        </CharString>
        <CharString name="dotaccentcmb">
          633 121 callgsubr
          endchar
        </CharString>
        <CharString name="dotaccentcmb.short">
          633 1597 138 callsubr
          endchar
        </CharString>
        <CharString name="dotbelowcmb">
          50 callsubr
          endchar
        </CharString>
        <CharString name="dotlessi">
          1120 hmoveto
          -77 callsubr
          endchar
        </CharString>
        <CharString name="dotlessj">
          -40 callgsubr
          endchar
        </CharString>
        <CharString name="dotmacroncmb">
          992 1723 -55 callgsubr
          359 -464 rmoveto
          73 callgsubr
        </CharString>
        <CharString name="dotmacroncmb.short">
          71 callgsubr
          endchar
        </CharString>
        <CharString name="dzecyrillic">
          187 781 rmoveto
          18 callsubr
          vhcurveto
          165 -35 rlineto
          -103 callgsubr
          hvcurveto
          endchar
        </CharString>
        <CharString name="dzhecyrillic">
          1121 1103 rmoveto
          -274 -885 -428 885 -274 -1103 363 -285 250 285 363 hlineto
          endchar
        </CharString>
        <CharString name="e">
          -106 callsubr
          endchar
        </CharString>
        <CharString name="eacute">
          754 -78 callsubr
          380 -986 -96 callgsubr
        </CharString>
        <CharString name="ebreve">
          -106 callsubr
          -488 1130 rmoveto
          28 callgsubr
          -204 hlineto
          -106 -1 -69 -71 -116 hhcurveto
          endchar
        </CharString>
        <CharString name="ecaron">
          784 79 callgsubr
          375 -986 -96 callgsubr
        </CharString>
        <CharString name="ecedilla">
          419 661 -37 callsubr
        </CharString>
        <CharString name="ecedillabreve">
          828 1614 rmoveto
          165 callsubr
          28 callgsubr
          -613 -953 -37 callsubr
        </CharString>
        <CharString name="ecircumflex">
          -106 callsubr
          -633 1319 -99 callsubr
          endchar
        </CharString>
        <CharString name="ecircumflexacute">
          -106 callsubr
          -270 1332 rmoveto
          219 hlineto
          236 142 callsubr
          -560 -348 -54 callsubr
          endchar
        </CharString>
        <CharString name="ecircumflexbelow">
          -106 callsubr
          -632 -470 -54 callsubr
          endchar
        </CharString>
        <CharString name="ecircumflexdotbelow">
          -106 callsubr
          -632 1319 -54 callsubr
          -143 -2105 -46 callgsubr
          endchar
        </CharString>
        <CharString name="ecircumflexgrave">
          -106 callsubr
          34 1332 rmoveto
          -197 142 callsubr
          235 -335 rlineto
          -447 -13 -54 callsubr
          endchar
        </CharString>
        <CharString name="ecircumflexhookabove">
          -106 callsubr
          -632 1319 -54 callsubr
          3 211 47 callsubr
        </CharString>
        <CharString name="ecircumflextilde">
          -106 callsubr
          -623 1536 rmoveto
          86 43 -139 161 hhcurveto
          150 94 43 callsubr
          -161 hhcurveto
          -150 -93 -117 -189 hvcurveto
          178 hlineto
          92 2 27 44 57 hhcurveto
          -9 -217 -54 callsubr
          endchar
        </CharString>
        <CharString name="ecyrillic">
          -10 callsubr
          endchar
        </CharString>
        <CharString name="edblgrave">
          779 1650 rmoveto
          -249 6 callgsubr
          321 -986 -96 callgsubr
        </CharString>
        <CharString name="edieresis">
          -106 callsubr
          -720 989 rmoveto
          80 68 69 83 83 -68 -59 callsubr
        </CharString>
        <CharString name="edotaccent">
          -106 callsubr
          -488 975 -23 callgsubr
        </CharString>
        <CharString name="edotbelow">
          -106 callsubr
          -488 -786 -46 callgsubr
          endchar
        </CharString>
        <CharString name="efcyrillic">
          508 -365 rmoveto
          251 349 hlineto
          321 19 168 194 354 vvcurveto
          350 -172 198 -317 19 vhcurveto
          341 -251 -341 vlineto
          -318 -19 -171 -198 -350 vvcurveto
          -354 168 -194 321 -19 vhcurveto
          -245 567 rmoveto
          226 90 133 161 6 vhcurveto
          -730 vlineto
          -162 6 -89 131 228 vvcurveto
          490 365 rmoveto
          161 -6 90 -133 -226 vvcurveto
          -228 -89 -131 -162 -6 vhcurveto
          endchar
        </CharString>
        <CharString name="egrave">
          -106 callsubr
          -328 986 -40 callsubr
          endchar
        </CharString>
        <CharString name="ehookabove">
          -106 callsubr
          -673 1199 47 callgsubr
        </CharString>
        <CharString name="eight">
          635 855 rmoveto
          -139 -92 82 120 120 92 82 139 138 92 -82 -120 -120 -92 -82 -138 hvcurveto
          -666 vmoveto
          -164 -111 92 135 135 111 92 164 163 111 -92 -135 -135 -111 -92 -163 hvcurveto
          -219 vmoveto
          339 229 169 250 178 -123 144 -190 43 hvcurveto
          18 vlineto
          156 37 99 122 152 vvcurveto
          229 -212 161 -298 -299 -212 -161 -229 -152 99 -122 156 -37 vhcurveto
          -18 vlineto
          -191 -45 -122 -143 -177 vvcurveto
          -250 229 -169 340 vhcurveto
          endchar
        </CharString>
        <CharString name="einvertedbreve">
          1032 144 callsubr
          -152 144 -238 -238 -153 117 callgsubr
          44 -949 -96 callgsubr
        </CharString>
        <CharString name="elcyrillic">
          838 877 rmoveto
          -877 268 1103 -816 vlineto
          -7 -146 -16 99 callsubr
          -37 -123 -102 hhcurveto
          -26 -29 callgsubr
          endchar
        </CharString>
        <CharString name="ellipsis">
          221 -21 rmoveto
          92 46 63 125 126 -46 62 -92 -92 -45 -62 -126 -125 45 -63 92 hvcurveto
          412 hmoveto
          92 45 63 125 126 -45 62 -92 -92 -45 -62 -126 -125 45 -63 92 hvcurveto
          412 hmoveto
          92 45 63 125 126 -45 62 -92 -92 -46 -62 -126 -125 46 -63 92 hvcurveto
          endchar
        </CharString>
        <CharString name="emacron">
          -106 callsubr
          -130 1046 40 callgsubr
        </CharString>
        <CharString name="emacronacute">
          1001 1352 -46 callsubr
          461 317 rmoveto
          251 310 rlineto
          -266 hlineto
          -213 -310 rlineto
          357 -1359 -96 callgsubr
        </CharString>
        <CharString name="emacrongrave">
          -106 callsubr
          -361 1359 rmoveto
          -214 310 rlineto
          -266 hlineto
          251 -310 rlineto
          461 -317 -46 callsubr
          endchar
        </CharString>
        <CharString name="emcyrillic">
          297 766 rmoveto
          16 hlineto
          243 -707 rlineto
          153 hlineto
          241 693 rlineto
          16 hlineto
          -13 -752 rlineto
          214 1103 -286 hlineto
          -240 -726 rlineto
          -16 hlineto
          -239 212 callsubr
          endchar
        </CharString>
        <CharString name="emdash">
          96 callgsubr
        </CharString>
        <CharString name="encyrillic">
          94 callgsubr
        </CharString>
        <CharString name="endash">
          96 callgsubr
        </CharString>
        <CharString name="eogonek">
          856 -461 rmoveto
          52 47 7 14 34 hvcurveto
          157 vlineto
          -5 -11 -27 -3 -31 hhcurveto
          -76 -46 39 66 63 44 62 119 101 hvcurveto
          100 88 59 95 10 87 rrcurveto
          137 callsubr
          711 152 vlineto
          296 -187 192 -292 -300 -200 -191 -289 vhcurveto
          -177 vlineto
          -311 176 -182 300 35 37 4 5 22 vhcurveto
          -17 vlineto
          -83 -46 -50 -81 -82 vvcurveto
          -129 110 -91 158 vhcurveto
          -210 1375 -86 callsubr
          endchar
        </CharString>
        <CharString name="epsilongreek">
          607 -24 rmoveto
          303 228 161 232 67 callsubr
          84 87 83 42 126 137 83 -44 -111 27 hvcurveto
          268 hlineto
          249 197 callgsubr
          -150 -175 -113 54 -75 120 -44 hvcurveto
          -19 vlineto
          -128 -41 -69 -84 -129 vvcurveto
          -201 170 -121 309 vhcurveto
          endchar
        </CharString>
        <CharString name="epsilontonosgreek">
          607 -24 rmoveto
          303 228 160 233 67 callsubr
          83 88 83 42 126 137 83 -44 -112 27 hvcurveto
          268 hlineto
          250 197 callgsubr
          -151 -174 -113 54 -75 120 -45 hvcurveto
          -18 vlineto
          -128 -41 -69 -85 -129 vvcurveto
          -201 170 -120 309 vhcurveto
          -82 1300 rmoveto
          224 hlineto
          155 58 callgsubr
          endchar
        </CharString>
        <CharString name="equal">
          1163 249 rmoveto
          274 -1060 -274 vlineto
          1060 510 rmoveto
          274 -1060 -274 vlineto
          endchar
        </CharString>
        <CharString name="ercyrillic">
          754 1120 rmoveto
          96 callsubr
          hvcurveto
          -20 190 -282 -1470 285 554 21 hlineto
          -132 36 -20 callgsubr
          vhcurveto
          -105 -238 rmoveto
          142 86 -93 -151 hvcurveto
          -183 vlineto
          -151 -86 -93 -142 -141 -87 92 152 vhcurveto
          183 vlineto
          152 87 92 141 vhcurveto
          endchar
        </CharString>
        <CharString name="ereversedcyrillic">
          374 728 -86 callgsubr
        </CharString>
        <CharString name="escyrillic">
          1132 718 -6 callsubr
        </CharString>
        <CharString name="etagreek">
          486 hmoveto
          -4 callgsubr
        </CharString>
        <CharString name="etatonosgreek">
          445 1276 rmoveto
          224 hlineto
          155 58 callgsubr
          -39 -1652 rmoveto
          -4 callgsubr
        </CharString>
        <CharString name="eth">
          829 486 rmoveto
          -183 -80 -106 -138 -139 -79 106 183 vhcurveto
          66 vlineto
          181 79 105 139 139 79 -105 -181 vhcurveto
          254 832 rmoveto
          168 vlineto
          -323 -120 -43 40 -46 37 -49 33 rlinecurve
          -366 hlineto
          103 -63 89 -66 76 -69 -210 -78 rcurveline
          -167 vlineto
          329 122 77 -93 54 -99 33 -104 rlinecurve
          -16 hlineto
          82 -63 -81 36 -120 hhcurveto
          -263 -160 -193 -320 hvcurveto
          -29 vlineto
          -330 186 -191 319 322 185 195 340 vhcurveto
          109 vlineto
          242 -90 245 -153 195 vhcurveto
          endchar
        </CharString>
        <CharString name="etilde">
          -106 callsubr
          -620 1097 rmoveto
          79 -19 callgsubr
          -28 -48 -53 vhcurveto
          -79 -48 143 -147 hhcurveto
          -154 2 callgsubr
          52 hhcurveto
          endchar
        </CharString>
        <CharString name="etildebelow">
          -106 callsubr
          -610 -637 31 callsubr
        </CharString>
        <CharString name="exclam">
          475 86 callgsubr
          25 -994 rlineto
          265 hlineto
          27 994 rlineto
          -159 -1474 rmoveto
          140 callsubr
          141 callsubr
          hvcurveto
          endchar
        </CharString>
        <CharString name="exclamdown">
          633 1124 rmoveto
          141 callsubr
          140 callsubr
          hvcurveto
          159 -1474 rmoveto
          -27 994 rlineto
          -265 hlineto
          -25 -994 rlineto
          endchar
        </CharString>
        <CharString name="f">
          26 callsubr
          endchar
        </CharString>
        <CharString name="fdotaccent">
          26 callsubr
          -250 409 35 callgsubr
          endchar
        </CharString>
        <CharString name="fi">
          535 hmoveto
          873 355 -873 286 1092 -641 99 vlineto
          83 54 38 98 24 47 -1 -2 22 vhcurveto
          201 vlineto
          2 -16 -51 2 -26 hhcurveto
          -318 -121 -93 -253 hvcurveto
          -76 -227 -219 227 -873 vlineto
          790 1221 rmoveto
          112 76 69 104 104 -76 69 -112 183 callsubr
        </CharString>
        <CharString name="figuredash">
          96 callgsubr
        </CharString>
        <CharString name="five">
          625 -29 rmoveto
          320 215 205 308 281 -186 195 -266 -135 -109 -50 -91 -62 hvcurveto
          -18 hlineto
          31 385 rlineto
          657 239 -882 hlineto
          -68 -834 rlineto
          274 hlineto
          87 52 79 44 104 hhcurveto
          154 105 -106 -157 -156 -104 -105 -155 -134 -101 78 116 -17 hvcurveto
          -274 hlineto
          -261 8 210 -178 302 hhcurveto
          endchar
        </CharString>
        <CharString name="fl">
          487 873 rmoveto
          274 219 -280 78 hlineto
          102 47 42 123 vhcurveto
          251 -1314 274 1515 -539 hlineto
          -309 -115 -96 -261 hvcurveto
          -66 -213 -219 213 -873 274 vlineto
          endchar
        </CharString>
        <CharString name="florin">
          261 -24 rmoveto
          276 152 127 287 43 hvcurveto
          40 258 rlineto
          373 223 -339 hlineto
          23 149 rlineto
          127 20 70 61 134 hhcurveto
          55 65 -6 -11 43 hvcurveto
          252 vlineto
          11 -52 -65 5 -79 hhcurveto
          -284 -162 -136 -266 -41 hvcurveto
          -28 -186 rlineto
          -341 -223 308 hlineto
          -39 -243 rlineto
          -119 -19 -75 -59 -115 hhcurveto
          -58 -60 10 16 -55 hvcurveto
          -254 vlineto
          -15 59 69 -8 82 hhcurveto
          endchar
        </CharString>
        <CharString name="four">
          747 hmoveto
          266 273 192 228 -196 369 -253 -364 -352 18 hlineto
          424 919 rlineto
          -287 hlineto
          -439 -942 rlineto
          -228 645 vlineto
          endchar
        </CharString>
        <CharString name="fraction">
          1266 1443 6 callsubr
        </CharString>
        <CharString name="franc">
          916 364 rmoveto
          -346 232 509 234 -509 368 562 245 -845 -1079 -153 -181 153 -183 283 183 346 hlineto
          endchar
        </CharString>
        <CharString name="fullblock">
          108 callsubr
          2048 120 callgsubr
        </CharString>
        <CharString name="g">
          -101 callgsubr
          endchar
        </CharString>
        <CharString name="gacute">
          722 -78 callsubr
          663 -32 callsubr
        </CharString>
        <CharString name="gammagreek">
          448 -360 rmoveto
          269 326 hlineto
          286 380 109 286 270 vvcurveto
          65 -8 79 -15 57 vhcurveto
          -268 hlineto
          14 -61 8 -55 -87 vvcurveto
          -227 -61 -172 -162 -238 203 callgsubr
          377 -1164 rlineto
          endchar
        </CharString>
        <CharString name="gbreve">
          -101 callgsubr
          8 1855 rmoveto
          28 callgsubr
          -204 hlineto
          -106 -1 -69 -71 -116 hhcurveto
          endchar
        </CharString>
        <CharString name="gcaron">
          753 79 callgsubr
          657 -32 callsubr
        </CharString>
        <CharString name="gcircumflex">
          -101 callgsubr
          -137 2044 -99 callsubr
          endchar
        </CharString>
        <CharString name="gcommaaccent">
          -101 callgsubr
          28 2063 rmoveto
          -165 -354 rlineto
          275 hlineto
          132 354 rlineto
          endchar
        </CharString>
        <CharString name="gdotaccent">
          -101 callgsubr
          8 1700 -23 callgsubr
        </CharString>
        <CharString name="gecyrillic">
          1152 1103 rmoveto
          -1028 8 callsubr
          hlineto
          endchar
        </CharString>
        <CharString name="germandbls">
          407 hmoveto
          1028 vlineto
          135 67 65 131 118 76 -70 -111 -114 -72 -72 -114 vhcurveto
          -34 -252 57 hlineto
          170 94 -68 -126 -122 -74 -61 -140 -52 -44 6 13 -35 hvcurveto
          -249 vlineto
          -11 46 62 -6 57 hhcurveto
          305 173 147 266 205 -121 131 -209 24 hvcurveto
          19 vlineto
          127 41 88 125 142 vvcurveto
          254 -170 142 -298 -315 -182 -156 -273 vhcurveto
          -1052 vlineto
          endchar
        </CharString>
        <CharString name="geupturncyrillic">
          921 1384 rmoveto
          -281 -797 8 callsubr
          681 vlineto
          endchar
        </CharString>
        <CharString name="gjecyrillic">
          1059 55 callgsubr
          373 -193 rmoveto
          -1028 8 callsubr
          hlineto
          endchar
        </CharString>
        <CharString name="glyph1">
          endchar
        </CharString>
        <CharString name="gmacron">
          -101 callgsubr
          367 1771 40 callgsubr
        </CharString>
        <CharString name="grave">
          904 1296 -40 callsubr
          endchar
        </CharString>
        <CharString name="gravecmb">
          904 1296 -40 callsubr
          endchar
        </CharString>
        <CharString name="gravecmb.short">
          649 177 callsubr
          -294 hlineto
          311 -318 rlineto
          260 hlineto
          endchar
        </CharString>
        <CharString name="greater">
          805 652 rmoveto
          -20 vlineto
          -637 -295 rlineto
          -311 vlineto
          932 495 rlineto
          242 vlineto
          -932 496 rlineto
          -312 vlineto
          endchar
        </CharString>
        <CharString name="greaterequal">
          1144 31 rmoveto
          245 -1018 -245 vlineto
          -1 597 rmoveto
          -261 vlineto
          1019 302 rlineto
          231 vlineto
          -1019 302 rlineto
          -262 vlineto
          644 -146 rlineto
          -19 vlineto
          endchar
        </CharString>
        <CharString name="greekquestionmark">
          32 callgsubr
        </CharString>
        <CharString name="guarani">
          725 589 rmoveto
          245 hlineto
          -6 -223 -83 -120 -156 -21 rrcurveto
          -140 9 rmoveto
          -162 40 -90 172 277 vvcurveto
          272 83 175 169 40 vhcurveto
          637 -412 rmoveto
          -497 419 hlineto
          126 -16 71 -81 26 -122 rrcurveto
          258 hlineto
          -46 274 -158 173 -277 19 rrcurveto
          124 -140 -127 vlineto
          -360 -36 -174 -272 -433 vvcurveto
          -432 184 -273 350 -39 vhcurveto
          -135 140 133 vlineto
          295 23 202 228 374 vvcurveto
          endchar
        </CharString>
        <CharString name="guillemotleft">
          342 643 rmoveto
          341 122 callgsubr
          -341 418 rlineto
          499 7 rmoveto
          340 418 rlineto
          -259 hlineto
          -340 -418 rlineto
          -7 vlineto
          340 -418 rlineto
          259 hlineto
          -340 418 rlineto
          endchar
        </CharString>
        <CharString name="guillemotright">
          423 81 callsubr
          499 -7 rmoveto
          -340 -418 rlineto
          258 hlineto
          341 418 rlineto
          7 vlineto
          -341 418 214 callsubr
          340 -418 rlineto
          endchar
        </CharString>
        <CharString name="guilsingleright">
          673 81 callsubr
          endchar
        </CharString>
</ttFont>
